# Blender v2.92.0 OBJ File: ''
# www.blender.org
mtllib tronc.mtl
o Fur_troe_mesh.003
v 8.660254 -22.927189 -5.000004
v 5.000000 -22.927187 -8.660257
v 1.454407 377.072784 -2.519032
v 2.519093 377.072784 -1.454345
v 0.000000 -22.927187 -10.000004
v 0.000000 377.072784 -2.908752
v -5.000000 -22.927187 -8.660257
v -1.454407 377.072784 -2.519032
v -8.660254 -22.927189 -5.000004
v -2.519093 377.072784 -1.454345
v -10.000000 -22.927189 -0.000004
v -2.908813 377.072784 0.000061
v -8.660254 -22.927189 4.999996
v -2.519093 377.072784 1.454468
v -5.000000 -22.927191 8.660250
v -1.454407 377.072784 2.519155
v 0.000000 -22.927191 9.999996
v 0.000000 377.072784 2.908875
v 5.000000 -22.927191 8.660250
v 1.454407 377.072784 2.519155
v 8.660254 -22.927189 4.999996
v 2.519093 377.072784 1.454468
v 10.000000 -22.927189 -0.000004
v 2.908813 377.072784 0.000061
v 0.000000 -22.927189 -0.000004
v 0.000000 435.779755 0.000071
vt 0.005017 0.005345
vt 0.087515 0.005345
vt 0.087515 0.997135
vt 0.005017 0.997135
vt 0.170012 0.005345
vt 0.170012 0.997135
vt 0.252509 0.005345
vt 0.252509 0.997135
vt 0.335006 0.005345
vt 0.335006 0.997135
vt 0.417503 0.005345
vt 0.417503 0.997135
vt 0.500000 0.005345
vt 0.500000 0.997135
vt 0.582497 0.005345
vt 0.582497 0.997135
vt 0.664994 0.005345
vt 0.664994 0.997135
vt 0.747491 0.005345
vt 0.747491 0.997135
vt 0.829988 0.005345
vt 0.829988 0.997135
vt 0.912485 0.005345
vt 0.912485 0.997135
vt 0.994982 0.005345
vt 0.994982 0.997135
vt 0.809364 -0.763855
vt 1.035834 -0.612974
vt 0.500000 -0.423357
vt 0.500000 -0.819081
vt 0.190636 -0.763855
vt -0.035834 -0.612974
vt -0.118728 -0.406868
vt -0.035834 -0.200762
vt 0.190636 -0.049881
vt 0.500000 0.005345
vt 0.809364 -0.049881
vt 1.035834 -0.200762
vt 1.118728 -0.406868
vt 1.035834 1.612974
vt 0.809364 1.763855
vt 0.500000 1.390379
vt 0.500000 1.819081
vt 0.190636 1.763855
vt -0.035834 1.612974
vt -0.118728 1.406868
vt -0.035834 1.200762
vt 0.190636 1.049881
vt 0.500000 0.994655
vt 0.809364 1.049881
vt 1.035834 1.200762
vt 1.118728 1.406868
vn 0.8659 0.0177 -0.4999
vn 0.4999 0.0177 -0.8659
vn 0.4999 0.0187 -0.8659
vn 0.8659 0.0187 -0.4999
vn 0.0000 0.0177 -0.9998
vn -0.0000 0.0188 -0.9998
vn -0.4999 0.0177 -0.8659
vn -0.4999 0.0188 -0.8659
vn -0.8659 0.0177 -0.4999
vn -0.8659 0.0187 -0.4999
vn -0.9998 0.0177 -0.0000
vn -0.9998 0.0188 0.0000
vn -0.8659 0.0177 0.4999
vn -0.8659 0.0187 0.4999
vn -0.4999 0.0177 0.8659
vn -0.4999 0.0187 0.8659
vn 0.0000 0.0177 0.9998
vn 0.0000 0.0188 0.9998
vn 0.4999 0.0177 0.8659
vn 0.4999 0.0188 0.8659
vn 0.8659 0.0177 0.4999
vn 0.8659 0.0187 0.4999
vn 0.9998 0.0177 -0.0000
vn 0.9998 0.0188 -0.0000
vn -0.0000 -1.0000 -0.0000
vn 0.0000 1.0000 0.0003
usemtl Branch
s 1
f 1/1/1 2/2/2 3/3/3 4/4/4
f 2/2/2 5/5/5 6/6/6 3/3/3
f 5/5/5 7/7/7 8/8/8 6/6/6
f 7/7/7 9/9/9 10/10/10 8/8/8
f 9/9/9 11/11/11 12/12/12 10/10/10
f 11/11/11 13/13/13 14/14/14 12/12/12
f 13/13/13 15/15/15 16/16/16 14/14/14
f 15/15/15 17/17/17 18/18/18 16/16/16
f 17/17/17 19/19/19 20/20/20 18/18/18
f 19/19/19 21/21/21 22/22/22 20/20/20
f 21/21/21 23/23/23 24/24/24 22/22/22
f 23/23/23 1/25/1 4/26/4 24/24/24
f 2/27/25 1/28/25 25/29/25
f 5/30/25 2/27/25 25/29/25
f 7/31/25 5/30/25 25/29/25
f 9/32/25 7/31/25 25/29/25
f 11/33/25 9/32/25 25/29/25
f 13/34/25 11/33/25 25/29/25
f 15/35/25 13/34/25 25/29/25
f 17/36/25 15/35/25 25/29/25
f 19/37/25 17/36/25 25/29/25
f 21/38/25 19/37/25 25/29/25
f 23/39/25 21/38/25 25/29/25
f 1/28/25 23/39/25 25/29/25
f 4/40/4 3/41/3 26/42/26
f 3/41/3 6/43/6 26/42/26
f 6/43/6 8/44/8 26/42/26
f 8/44/8 10/45/10 26/42/26
f 10/45/10 12/46/12 26/42/26
f 12/46/12 14/47/14 26/42/26
f 14/47/14 16/48/16 26/42/26
f 16/48/16 18/49/18 26/42/26
f 18/49/18 20/50/20 26/42/26
f 20/50/20 22/51/22 26/42/26
f 22/51/22 24/52/24 26/42/26
f 24/52/24 4/40/4 26/42/26
