# Blender v2.92.0 OBJ File: 'loup.blend'
# www.blender.org
mtllib cou1.mtl
o cou1_Wolf.001
v 0.000000 43.995296 33.457607
v -3.092300 44.711796 33.097908
v -4.548100 39.186195 26.773405
v 0.000000 38.169994 27.407806
v -5.356000 46.670795 32.142006
v -7.877600 42.486897 24.545208
v -6.184600 49.350494 30.862309
v -9.096200 46.326496 22.291607
v -5.356000 52.059795 29.576708
v -7.877600 50.099895 19.965607
v -3.092300 54.097897 28.622210
v -4.548100 53.119297 18.419710
v 0.000000 55.201897 28.270109
v 0.000000 55.108894 17.677710
v -5.957000 32.562996 21.697405
v 0.000000 27.816696 20.181704
v -10.317800 37.888996 19.926706
v -11.913900 43.419098 16.389008
v -10.317800 49.405197 13.006907
v -5.957000 53.768299 10.008208
v 0.000000 56.759998 8.872609
v 4.548100 39.186195 26.773405
v 3.092300 44.711796 33.097908
v 7.877600 42.486897 24.545208
v 5.356000 46.670795 32.142006
v 9.096200 46.326496 22.291607
v 6.184600 49.350494 30.862309
v 7.877600 50.099895 19.965607
v 5.356000 52.059795 29.576708
v 4.548100 53.119297 18.419710
v 3.092300 54.097897 28.622210
v 5.957000 32.562996 21.697405
v 10.317800 37.888996 19.926706
v 11.913900 43.419098 16.389008
v 10.317800 49.405197 13.006907
v 5.957000 53.768299 10.008208
vt 0.888300 0.437900
vt 0.897800 0.468200
vt 0.926700 0.458500
vt 0.914200 0.427600
vt 0.905600 0.501900
vt 0.937000 0.500600
vt 0.905800 0.538700
vt 0.940200 0.542300
vt 0.899200 0.574900
vt 0.938200 0.586400
vt 0.885700 0.623100
vt 0.923100 0.644300
vt 0.862600 0.714200
vt 0.890200 0.725500
vt 0.973600 0.437300
vt 0.986500 0.384100
vt 0.975400 0.488300
vt 0.986100 0.547200
vt 0.992600 0.594000
vt 0.982200 0.664600
vt 0.952800 0.766600
vt 0.926700 0.458500
vt 0.897800 0.468200
vt 0.937000 0.500600
vt 0.905600 0.501900
vt 0.940200 0.542300
vt 0.905800 0.538700
vt 0.938200 0.586400
vt 0.899200 0.574900
vt 0.923100 0.644300
vt 0.885700 0.623100
vt 0.973600 0.437300
vt 0.975400 0.488300
vt 0.986100 0.547200
vt 0.992600 0.594000
vt 0.982200 0.664600
vn -0.0000 -0.7204 0.6936
vn -0.4613 -0.6128 0.6416
vn -0.5219 -0.5113 0.6828
vn -0.0000 -0.6457 0.7636
vn -0.8188 -0.3427 0.4605
vn -0.8431 -0.1904 0.5029
vn -0.9522 0.1140 0.2833
vn -0.9339 0.1906 0.3026
vn -0.8208 0.5623 0.1007
vn -0.7846 0.6005 0.1546
vn -0.5150 0.8571 -0.0087
vn -0.5260 0.8468 0.0788
vn -0.0000 1.0000 -0.0088
vn 0.0000 0.9950 0.0998
vn -0.4204 -0.4939 0.7611
vn 0.0000 -0.5723 0.8201
vn -0.7949 -0.1647 0.5839
vn -0.9186 0.2075 0.3363
vn -0.7646 0.6102 0.2072
vn -0.5184 0.8416 0.1518
vn 0.0000 0.9829 0.1843
vn 0.5219 -0.5113 0.6828
vn 0.4613 -0.6128 0.6416
vn 0.8431 -0.1904 0.5029
vn 0.8188 -0.3427 0.4605
vn 0.9339 0.1906 0.3026
vn 0.9522 0.1140 0.2833
vn 0.7846 0.6005 0.1546
vn 0.8208 0.5623 0.1007
vn 0.5260 0.8468 0.0788
vn 0.5150 0.8571 -0.0087
vn 0.4204 -0.4939 0.7611
vn 0.7949 -0.1647 0.5839
vn 0.9186 0.2075 0.3363
vn 0.7646 0.6102 0.2072
vn 0.5184 0.8416 0.1518
usemtl Wolf
s 1
f 1/1/1 2/2/2 3/3/3 4/4/4
f 2/2/2 5/5/5 6/6/6 3/3/3
f 5/5/5 7/7/7 8/8/8 6/6/6
f 7/7/7 9/9/9 10/10/10 8/8/8
f 9/9/9 11/11/11 12/12/12 10/10/10
f 11/11/11 13/13/13 14/14/14 12/12/12
f 3/3/3 15/15/15 16/16/16 4/4/4
f 6/6/6 17/17/17 15/15/15 3/3/3
f 8/8/8 18/18/18 17/17/17 6/6/6
f 10/10/10 19/19/19 18/18/18 8/8/8
f 12/12/12 20/20/20 19/19/19 10/10/10
f 14/14/14 21/21/21 20/20/20 12/12/12
f 1/1/1 4/4/4 22/22/22 23/23/23
f 23/23/23 22/22/22 24/24/24 25/25/25
f 25/25/25 24/24/24 26/26/26 27/27/27
f 27/27/27 26/26/26 28/28/28 29/29/29
f 29/29/29 28/28/28 30/30/30 31/31/31
f 31/31/31 30/30/30 14/14/14 13/13/13
f 22/22/22 4/4/4 16/16/16 32/32/32
f 24/24/24 22/22/22 32/32/32 33/33/33
f 26/26/26 24/24/24 33/33/33 34/34/34
f 28/28/28 26/26/26 34/34/34 35/35/35
f 30/30/30 28/28/28 35/35/35 36/36/36
f 14/14/14 30/30/30 36/36/36 21/21/21
