# Blender v2.92.0 OBJ File: 'loup.blend'
# www.blender.org
mtllib cou2.mtl
o cou2_Wolf.003
v 0.000000 44.500793 35.580307
v -2.825600 45.300591 35.363708
v -4.155900 40.984295 29.019508
v 0.000000 39.041096 29.799305
v -4.894100 47.485695 34.772308
v -7.198200 44.373398 28.056707
v -5.651300 50.470596 33.964207
v -8.311800 48.406998 27.343008
v -4.894100 53.455498 33.156208
v -7.198200 52.574196 26.215008
v -2.825600 55.640594 32.564808
v -4.155900 55.624798 25.389210
v 0.000000 56.440395 32.348209
v 0.000000 56.741398 25.086910
v -5.443300 36.004997 25.284605
v 0.000000 31.577995 24.495806
v -9.428000 40.483894 24.350506
v -10.886500 45.970497 21.734707
v -9.428000 51.928898 19.084908
v -5.443300 56.076298 17.028009
v 0.000000 57.972195 16.340410
v 4.155900 40.984295 29.019608
v 2.825600 45.300591 35.363808
v 7.198200 44.373398 28.056707
v 4.894100 47.485695 34.772308
v 8.311800 48.406998 27.343008
v 5.651300 50.470596 33.964306
v 7.198200 52.574196 26.215008
v 4.894100 53.455498 33.156307
v 4.155900 55.624798 25.389210
v 2.825600 55.640594 32.564808
v 5.443300 36.004997 25.284605
v 9.428000 40.483894 24.350506
v 10.886500 45.970497 21.734707
v 9.428000 51.928898 19.084908
v 5.443300 56.076298 17.028009
vt 0.888300 0.437900
vt 0.897800 0.468200
vt 0.926700 0.458500
vt 0.914200 0.427600
vt 0.905600 0.501900
vt 0.937000 0.500600
vt 0.905800 0.538700
vt 0.940200 0.542300
vt 0.899200 0.574900
vt 0.938200 0.586400
vt 0.885700 0.623100
vt 0.923100 0.644300
vt 0.862600 0.714200
vt 0.890200 0.725500
vt 0.973600 0.437300
vt 0.986500 0.384100
vt 0.975400 0.488300
vt 0.986100 0.547200
vt 0.992600 0.594000
vt 0.982200 0.664600
vt 0.952800 0.766600
vt 0.926700 0.458500
vt 0.897800 0.468200
vt 0.937000 0.500600
vt 0.905600 0.501900
vt 0.940200 0.542300
vt 0.905800 0.538700
vt 0.938200 0.586400
vt 0.899200 0.574900
vt 0.923100 0.644300
vt 0.885700 0.623100
vt 0.973600 0.437300
vt 0.975400 0.488300
vt 0.986100 0.547200
vt 0.992600 0.594000
vt 0.982200 0.664600
vn 0.0000 -0.7270 0.6866
vn -0.4969 -0.6655 0.5570
vn -0.5521 -0.5161 0.6548
vn -0.0000 -0.6461 0.7632
vn -0.8304 -0.3391 0.4421
vn -0.7754 -0.2785 0.5667
vn -0.9336 0.0988 0.3443
vn -0.9266 0.0855 0.3661
vn -0.8280 0.5204 0.2088
vn -0.8226 0.5293 0.2078
vn -0.4998 0.8614 0.0908
vn -0.4876 0.8666 0.1061
vn 0.0000 0.9991 0.0414
vn 0.0000 0.9956 0.0934
vn -0.4205 -0.4724 0.7747
vn -0.0000 -0.5793 0.8151
vn -0.7280 -0.2057 0.6539
vn -0.9216 0.1584 0.3543
vn -0.8016 0.5636 0.1997
vn -0.4911 0.8625 0.1222
vn -0.0000 0.9903 0.1393
vn 0.5521 -0.5161 0.6548
vn 0.4969 -0.6655 0.5570
vn 0.7754 -0.2785 0.5667
vn 0.8304 -0.3391 0.4421
vn 0.9266 0.0855 0.3661
vn 0.9336 0.0988 0.3443
vn 0.8226 0.5293 0.2078
vn 0.8280 0.5204 0.2088
vn 0.4876 0.8666 0.1061
vn 0.4998 0.8614 0.0908
vn 0.4205 -0.4724 0.7747
vn 0.7280 -0.2057 0.6539
vn 0.9216 0.1584 0.3543
vn 0.8016 0.5636 0.1997
vn 0.4911 0.8625 0.1222
usemtl Wolf
s 1
f 1/1/1 2/2/2 3/3/3 4/4/4
f 2/2/2 5/5/5 6/6/6 3/3/3
f 5/5/5 7/7/7 8/8/8 6/6/6
f 7/7/7 9/9/9 10/10/10 8/8/8
f 9/9/9 11/11/11 12/12/12 10/10/10
f 11/11/11 13/13/13 14/14/14 12/12/12
f 3/3/3 15/15/15 16/16/16 4/4/4
f 6/6/6 17/17/17 15/15/15 3/3/3
f 8/8/8 18/18/18 17/17/17 6/6/6
f 10/10/10 19/19/19 18/18/18 8/8/8
f 12/12/12 20/20/20 19/19/19 10/10/10
f 14/14/14 21/21/21 20/20/20 12/12/12
f 1/1/1 4/4/4 22/22/22 23/23/23
f 23/23/23 22/22/22 24/24/24 25/25/25
f 25/25/25 24/24/24 26/26/26 27/27/27
f 27/27/27 26/26/26 28/28/28 29/29/29
f 29/29/29 28/28/28 30/30/30 31/31/31
f 31/31/31 30/30/30 14/14/14 13/13/13
f 22/22/22 4/4/4 16/16/16 32/32/32
f 24/24/24 22/22/22 32/32/32 33/33/33
f 26/26/26 24/24/24 33/33/33 34/34/34
f 28/28/28 26/26/26 34/34/34 35/35/35
f 30/30/30 28/28/28 35/35/35 36/36/36
f 14/14/14 30/30/30 36/36/36 21/21/21
