# Blender v2.92.0 OBJ File: 'loup.blend'
# www.blender.org
mtllib patte_ar_d_3.mtl
o Wolf.012_Wolf.021
v 3.460700 1.943998 2.130505
v 0.882400 -3.494303 -1.322797
v 2.865100 -1.838802 -0.850097
v -1.076000 -2.102701 -0.978397
v -1.290300 1.591898 1.937103
v 2.365000 3.608498 0.252503
v 2.750500 0.514997 -4.938296
v 2.076400 2.147999 -4.552197
v 0.711600 -3.744902 -5.268197
v 2.554500 -2.202602 -5.151497
v 0.333200 4.029198 0.361204
v -0.137400 2.308298 -4.592396
v -0.938800 -2.197601 -5.130597
v -1.234600 0.408598 -4.913696
v -1.226800 -3.392300 -9.227597
v -1.631300 -0.168200 -9.412497
v -2.284800 -0.718300 -11.706997
v -3.600100 -4.169201 -12.586897
v -0.798300 1.431801 -9.155196
v 2.715300 -0.168200 -9.412497
v 2.129300 -3.392300 -9.227597
v 4.304200 -5.305500 -12.298697
v 3.416100 -1.755100 -12.046497
v 3.549800 -8.908501 -12.013998
v 2.155444 -9.646830 -11.572021
v 2.136820 -10.579638 -14.222675
v 3.845200 -9.819300 -14.212998
v -2.454200 -1.037300 -13.239797
v -3.916200 -4.128599 -13.614997
v -0.959000 1.219299 -10.643597
v 2.100700 1.431801 -9.150196
v 2.260400 1.189800 -10.637997
v 3.337500 -1.437599 -13.206397
v 4.130400 -5.222400 -13.610197
v -0.424406 -10.149153 -11.361052
v -2.060300 -9.395801 -11.605598
v -2.060900 -10.299200 -14.201199
v -0.449500 -11.000300 -14.199199
v 0.374500 -4.794401 -8.551797
v -1.828100 -6.450101 -11.767097
v 0.027000 -7.238101 -11.390298
v 1.882200 -7.067301 -11.647298
v 1.465700 -9.746401 -11.564598
v -0.074021 -10.111616 -11.377123
v -0.065400 -11.088400 -14.191698
v 1.545438 -10.809201 -14.196242
v -2.455500 -8.773201 -11.852798
v -3.715400 -7.813500 -12.355098
v -4.011700 -8.930700 -14.197598
v -2.454900 -9.849000 -14.191998
v 2.123800 -7.035000 -14.040798
v 2.200600 -6.994500 -14.871498
v 4.195400 -5.762700 -14.871497
v 4.002400 -8.817400 -14.871498
v 2.226568 -9.584729 -14.888224
v -1.911700 -6.427600 -13.899498
v -1.946300 -6.388000 -14.871497
v 0.149700 -7.614700 -14.871498
v -0.278600 -10.107300 -14.871498
v -2.030800 -9.373400 -14.871498
v 0.116400 -7.534500 -13.961998
v 1.699189 -9.928598 -14.914809
v -0.000500 -10.220600 -14.871498
v -4.240100 -4.934500 -14.871497
v -2.273300 -9.002600 -14.871498
v -4.021800 -7.986000 -14.871498
v -2.878300 -3.581499 -14.871497
v -1.634800 -1.534000 -14.453297
v 2.433000 -1.534000 -14.453297
v 3.188200 -3.626801 -14.871497
v 2.137600 -5.712000 -14.871497
v 0.226100 -6.264900 -14.871497
v -1.731400 -5.126300 -14.871497
v -0.942500 0.624399 -11.921296
v 2.164700 0.559601 -11.921296
v 3.300500 -5.151300 -14.632597
v -3.413300 -4.417400 -14.632597
v -1.848500 -6.021300 -14.632598
v 0.191300 -7.127500 -14.632598
v 2.166200 -6.544000 -14.632598
v -1.572500 -10.933200 -12.898599
v -0.712900 -10.933200 -12.898599
v -1.142700 -12.091800 -13.445198
v -1.696400 -9.904400 -12.781998
v -0.589000 -9.904400 -12.781998
v -1.696400 -9.088000 -12.563298
v -0.589000 -9.088000 -12.563298
v -0.895800 -11.196000 -12.334998
v -1.389600 -11.196000 -12.334998
v -0.789145 -10.165792 -11.828142
v -1.460708 -10.148147 -11.872383
v -0.822973 -9.334562 -11.651143
v -1.460800 -9.331701 -11.653698
v -3.390700 -9.316700 -13.277498
v -2.630100 -9.250200 -13.277498
v -2.917400 -10.346900 -13.671498
v -3.580500 -8.410400 -13.253998
v -2.600600 -8.324700 -13.253998
v -3.645000 -7.673900 -13.123698
v -2.665000 -7.588200 -13.123698
v -2.775500 -9.452600 -12.758498
v -3.212500 -9.490800 -12.758498
v -2.796400 -8.487600 -12.430298
v -3.359400 -8.536900 -12.430298
v -2.860800 -7.751100 -12.299898
v -3.423900 -7.800400 -12.299898
v 1.194064 -11.228834 -12.912274
v 0.660600 -12.291000 -13.430498
v 0.272838 -11.075173 -12.890002
v 0.187800 -10.034700 -12.775298
v 1.417533 -10.203251 -12.846808
v 0.218400 -9.225000 -12.555598
v 1.330309 -9.398423 -12.535844
v 1.020406 -11.521949 -12.255960
v 0.449488 -11.405913 -12.277231
v 1.052400 -10.413001 -11.849399
v 0.388732 -10.332122 -11.809762
v 1.083100 -9.603301 -11.629698
v 0.445361 -9.503657 -11.641650
v 3.257500 -10.394900 -13.216599
v 2.744300 -11.342500 -13.620898
v 2.451534 -10.209135 -13.263825
v 2.502800 -9.287100 -13.206998
v 3.481700 -9.525700 -13.188398
v 2.595000 -8.566700 -13.074598
v 3.574000 -8.805300 -13.055998
v 3.072200 -10.539600 -12.701199
v 2.625697 -10.433056 -12.716527
v 3.255400 -9.616500 -12.368998
v 2.688732 -9.485152 -12.372572
v 3.347600 -8.896100 -12.236598
v 2.785200 -8.759000 -12.247298
v 3.686476 1.443411 3.089581
v 1.108176 -3.994888 -0.363720
v 3.090876 -2.339388 0.108980
v -0.850224 -2.603287 -0.019320
v -1.064525 1.091311 2.896179
v 2.590776 3.107912 1.211580
v 0.558976 3.528612 1.320280
vt 0.000000 0.000000
vt 0.000000 0.000000
vt 0.000000 0.000000
vt 0.000000 0.000000
vt 0.000000 0.000000
vt 0.000000 0.000000
vt 0.000000 0.000000
vt 0.291700 0.104200
vt 0.258700 0.101500
vt 0.330000 0.055600
vt 0.336300 0.075200
vt 0.434000 0.205000
vt 0.401500 0.189100
vt 0.422600 0.144600
vt 0.446500 0.157700
vt 0.306700 0.124500
vt 0.353200 0.096200
vt 0.370700 0.172200
vt 0.398900 0.132000
vt 0.314700 0.161600
vt 0.374200 0.112900
vt 0.476300 0.241300
vt 0.474200 0.169800
vt 0.540400 0.319200
vt 0.525000 0.290400
vt 0.550500 0.279400
vt 0.587500 0.306700
vt 0.509600 0.282000
vt 0.487800 0.310000
vt 0.510000 0.336400
vt 0.492300 0.382200
vt 0.472500 0.342400
vt 0.511400 0.050300
vt 0.530800 0.046700
vt 0.530700 0.075000
vt 0.516000 0.077200
vt 0.565200 0.269500
vt 0.596700 0.297600
vt 0.514000 0.269300
vt 0.483700 0.293500
vt 0.472700 0.292200
vt 0.458500 0.344100
vt 0.477000 0.387500
vt 0.689800 0.159800
vt 0.693900 0.180200
vt 0.663400 0.182900
vt 0.660100 0.168300
vt 0.530700 0.335400
vt 0.577800 0.346100
vt 0.557600 0.368200
vt 0.533500 0.382200
vt 0.626600 0.069400
vt 0.643300 0.077200
vt 0.627400 0.103700
vt 0.615500 0.098800
vt 0.681500 0.277600
vt 0.668300 0.291700
vt 0.650100 0.274900
vt 0.659500 0.262500
vt 0.483500 0.020000
vt 0.517400 0.021900
vt 0.561100 0.041900
vt 0.565600 0.069200
vt 0.528400 0.110900
vt 0.504600 0.121400
vt 0.509600 0.087600
vt 0.534000 0.083000
vt 0.472800 0.082300
vt 0.467800 0.067100
vt 0.721900 0.161300
vt 0.726500 0.183600
vt 0.702600 0.212800
vt 0.679500 0.220500
vt 0.625000 0.204400
vt 0.625700 0.177500
vt 0.651300 0.166700
vt 0.655200 0.190700
vt 0.658400 0.132000
vt 0.687700 0.126300
vt 0.630100 0.039500
vt 0.649700 0.046500
vt 0.674900 0.085600
vt 0.663100 0.113000
vt 0.610700 0.136000
vt 0.587400 0.131500
vt 0.606400 0.104500
vt 0.626900 0.112400
vt 0.584600 0.073400
vt 0.601400 0.051900
vt 0.693800 0.301100
vt 0.678800 0.331000
vt 0.654600 0.330000
vt 0.642700 0.326200
vt 0.605900 0.267400
vt 0.628100 0.246900
vt 0.655600 0.256000
vt 0.639000 0.275800
vt 0.688600 0.241800
vt 0.704200 0.261100
vt 0.587600 0.209400
vt 0.560700 0.218400
vt 0.524400 0.187200
vt 0.533000 0.162700
vt 0.558100 0.150900
vt 0.580300 0.160800
vt 0.589500 0.186600
vt 0.528600 0.243100
vt 0.500800 0.218000
vt 0.524200 0.138600
vt 0.540700 0.145800
vt 0.602000 0.223000
vt 0.599600 0.207700
vt 0.611800 0.208200
vt 0.598100 0.179500
vt 0.602700 0.176700
vt 0.591900 0.148700
vt 0.587400 0.153100
vt 0.563900 0.142600
vt 0.568100 0.137800
vt 0.566700 0.137900
vt 0.539400 0.132100
vt 0.518200 0.256200
vt 0.560900 0.236400
vt 0.487900 0.229200
vt 0.507000 0.184800
vt 0.469000 0.052100
vt 0.630700 0.312800
vt 0.680200 0.233200
vt 0.668700 0.224200
vt 0.647600 0.135000
vt 0.657900 0.122900
vt 0.578700 0.081300
vt 0.566500 0.079500
vt 0.368600 0.024200
vt 0.375500 0.042100
vt 0.441200 0.109400
vt 0.460700 0.112600
vt 0.395000 0.066500
vt 0.431000 0.096300
vt 0.408600 0.076500
vt 0.491600 0.126500
vt 0.402800 0.505400
vt 0.414200 0.490100
vt 0.436200 0.515200
vt 0.377900 0.497400
vt 0.389600 0.476600
vt 0.357300 0.492300
vt 0.368000 0.469500
vt 0.400400 0.524900
vt 0.399800 0.516600
vt 0.371400 0.528100
vt 0.371400 0.515500
vt 0.349700 0.529800
vt 0.350000 0.514000
vt 0.406400 0.536200
vt 0.378500 0.547300
vt 0.354900 0.550600
vt 0.402800 0.505400
vt 0.414200 0.490100
vt 0.436200 0.515200
vt 0.377900 0.497400
vt 0.389600 0.476600
vt 0.357300 0.492300
vt 0.368000 0.469500
vt 0.400400 0.524900
vt 0.399800 0.516600
vt 0.371400 0.528100
vt 0.371400 0.515500
vt 0.349700 0.529800
vt 0.350000 0.514000
vt 0.406400 0.536200
vt 0.378500 0.547300
vt 0.354900 0.550600
vt 0.402800 0.505400
vt 0.436200 0.515200
vt 0.414200 0.490100
vt 0.389600 0.476600
vt 0.377900 0.497400
vt 0.368000 0.469500
vt 0.357300 0.492300
vt 0.399800 0.516600
vt 0.400400 0.524900
vt 0.371400 0.515500
vt 0.371400 0.528100
vt 0.350000 0.514000
vt 0.349700 0.529800
vt 0.406400 0.536200
vt 0.378500 0.547300
vt 0.354900 0.550600
vt 0.402800 0.505400
vt 0.436200 0.515200
vt 0.414200 0.490100
vt 0.389600 0.476600
vt 0.377900 0.497400
vt 0.368000 0.469500
vt 0.357300 0.492300
vt 0.399800 0.516600
vt 0.400400 0.524900
vt 0.371400 0.515500
vt 0.371400 0.528100
vt 0.350000 0.514000
vt 0.349700 0.529800
vt 0.406400 0.536200
vt 0.378500 0.547300
vt 0.354900 0.550600
vt 0.434000 0.205000
vt 0.401500 0.189100
vt 0.476300 0.241300
vt 0.370700 0.172200
vt 0.314700 0.161600
vt 0.306700 0.124500
vt 0.291700 0.104200
vt 0.258700 0.101500
vn -0.0758 0.5765 0.8135
vn 0.0140 -0.6202 0.7843
vn 0.0159 -0.6188 0.7854
vn -0.0141 -0.2589 0.9658
vn 0.1944 0.7876 0.5847
vn 0.5267 0.8467 -0.0757
vn 0.9669 0.2482 -0.0590
vn 0.9822 0.1693 -0.0808
vn 0.5709 0.7945 -0.2073
vn 0.9016 -0.3908 -0.1852
vn 0.0062 -0.9665 -0.2565
vn -0.0077 -0.9798 0.1998
vn 0.9014 -0.4329 -0.0046
vn -0.3183 0.9480 0.0074
vn -0.4676 0.8648 -0.1831
vn -0.8904 -0.4552 0.0055
vn -0.8980 -0.4322 0.0826
vn -0.9478 0.2429 0.2068
vn -0.9793 0.2019 0.0105
vn -0.8226 -0.3646 0.4364
vn -0.9708 0.1871 0.1503
vn -0.8903 0.4503 0.0677
vn -0.8692 0.0698 0.4896
vn -0.5220 0.8508 -0.0606
vn 0.9887 0.1333 0.0690
vn 0.8109 -0.3926 0.4339
vn 0.9433 -0.0812 0.3219
vn 0.9582 0.2810 0.0538
vn 0.6811 -0.3294 0.6539
vn -0.3465 -0.5884 0.7306
vn -0.4489 -0.8592 -0.2454
vn 0.7210 -0.6681 -0.1839
vn -0.6925 0.6228 -0.3642
vn -0.9485 0.3168 -0.0004
vn -0.4457 0.8742 -0.1926
vn 0.5533 0.8261 -0.1067
vn 0.5529 0.8096 -0.1968
vn 0.8451 0.4269 -0.3217
vn 0.9603 0.1690 -0.2221
vn 0.3853 -0.6185 0.6848
vn -0.7268 -0.2846 0.6251
vn -0.7468 -0.6175 -0.2469
vn 0.3722 -0.8967 -0.2393
vn -0.0395 -0.8055 0.5913
vn -0.4757 -0.2219 0.8512
vn -0.0839 -0.3957 0.9145
vn 0.3118 -0.3434 0.8859
vn 0.6101 -0.4233 0.6697
vn -0.5383 -0.5082 0.6723
vn -0.5464 -0.8070 -0.2240
vn 0.6145 -0.7671 -0.1843
vn 0.2136 -0.6162 0.7580
vn -0.7651 -0.1512 0.6258
vn -0.7833 -0.6088 -0.1258
vn 0.3174 -0.9325 -0.1723
vn -0.0435 -0.9937 -0.1028
vn -0.0978 0.1799 -0.9788
vn 0.6829 0.2953 -0.6681
vn 0.7245 -0.1969 -0.6605
vn -0.5357 -0.2946 -0.7913
vn -0.0952 -0.9952 -0.0214
vn 0.1484 0.2224 -0.9636
vn 0.0104 0.1437 -0.9896
vn 0.5657 -0.3812 -0.7312
vn -0.6803 -0.1571 -0.7159
vn -0.1111 -0.9918 0.0628
vn 0.6331 -0.3044 -0.7117
vn -0.6220 -0.2521 -0.7413
vn -0.7434 0.2790 -0.6079
vn 0.5746 -0.4041 -0.7117
vn -0.6496 -0.1832 -0.7379
vn -0.4184 0.2825 -0.8632
vn -0.2426 0.5334 -0.8103
vn 0.3244 0.5180 -0.7915
vn 0.5050 0.2330 -0.8311
vn 0.2131 -0.1589 -0.9640
vn -0.0259 -0.1672 -0.9856
vn -0.1350 -0.1263 -0.9828
vn -0.3818 0.7954 -0.4707
vn 0.4576 0.7482 -0.4805
vn 0.3536 0.1349 -0.9256
vn -0.3525 0.3356 -0.8736
vn 0.1328 0.1458 -0.9804
vn 0.0216 0.1764 -0.9841
vn -0.1567 0.1463 -0.9768
vn -0.8263 -0.0347 -0.5622
vn 0.8192 -0.0405 -0.5721
vn 0.0000 -0.7994 -0.6008
vn -0.7796 0.0745 -0.6219
vn 0.7717 0.0813 -0.6308
vn -0.7883 0.1592 -0.5944
vn 0.7799 0.1813 -0.5990
vn 0.5536 -0.5564 0.6196
vn -0.5692 -0.5427 0.6176
vn 0.6026 -0.2794 0.7476
vn -0.6228 -0.2736 0.7330
vn 0.6097 -0.1731 0.7735
vn -0.6310 -0.1855 0.7533
vn -0.8159 -0.1553 -0.5570
vn 0.8304 -0.0112 -0.5570
vn 0.0740 -0.8455 -0.5288
vn -0.7783 -0.0480 -0.6260
vn 0.7749 0.0879 -0.6260
vn -0.7947 0.0377 -0.6058
vn 0.7759 0.1755 -0.6060
vn 0.6003 -0.4341 0.6718
vn -0.5158 -0.5317 0.6718
vn 0.6236 -0.1600 0.7652
vn -0.5864 -0.2659 0.7651
vn 0.6250 -0.0828 0.7763
vn -0.6011 -0.1901 0.7763
vn 0.8217 -0.0817 -0.5640
vn -0.0699 -0.7803 -0.6215
vn -0.8164 -0.0161 -0.5772
vn -0.7711 0.1328 -0.6227
vn 0.7922 0.0735 -0.6058
vn -0.7910 0.2451 -0.5606
vn 0.7966 0.2137 -0.5654
vn 0.5055 -0.5938 0.6261
vn -0.6190 -0.5001 0.6056
vn 0.5727 -0.2679 0.7747
vn -0.6341 -0.2292 0.7385
vn 0.5608 -0.1867 0.8066
vn -0.6602 -0.1396 0.7380
vn 0.8287 -0.1959 -0.5243
vn -0.1018 -0.8421 -0.5296
vn -0.8197 0.0130 -0.5726
vn -0.7584 0.1385 -0.6369
vn 0.7905 -0.0795 -0.6073
vn -0.7796 0.2113 -0.5895
vn 0.7933 0.0103 -0.6087
vn 0.4513 -0.5761 0.6815
vn -0.6398 -0.3940 0.6599
vn 0.5537 -0.2998 0.7769
vn -0.6396 -0.1271 0.7581
vn 0.5490 -0.2149 0.8077
vn -0.6635 -0.0465 0.7467
vn 0.8970 -0.2621 -0.3559
vn 0.0656 -0.8640 -0.4992
vn 0.9339 0.2110 -0.2887
vn -0.8663 -0.4904 -0.0948
vn -0.9522 0.2236 0.2082
vn -0.1857 0.8671 0.4623
vn 0.6085 0.7605 0.2266
usemtl Wolf
s off
f 137/1/1 133/2/1 139/3/1
f 137/1/2 135/4/2 133/2/2
f 136/5/3 135/4/3 137/1/3
f 136/5/4 134/6/4 135/4/4
f 133/2/5 138/7/5 139/3/5
s 1
f 6/8/6 1/9/7 7/10/8 8/11/9
f 3/12/10 2/13/11 9/14/12 10/15/13
f 11/16/14 6/8/6 8/11/9 12/17/15
f 2/13/11 4/18/16 13/19/17 9/14/12
f 5/20/18 11/16/14 12/17/15 14/21/19
f 4/18/16 5/20/18 14/21/19 13/19/17
f 1/22/7 3/12/10 10/15/13 7/23/8
f 15/24/20 16/25/21 17/26/22 18/27/23
f 16/25/21 19/28/24 17/26/22
f 20/29/25 21/30/26 22/31/27 23/32/28
f 24/33/29 25/34/30 26/35/31 27/36/32
f 18/27/23 17/26/22 28/37/33 29/38/34
f 17/26/22 19/28/24 30/39/35 28/37/33
f 19/28/24 31/40/36 32/41/37 30/39/35
f 31/40/36 23/32/28 33/42/38 32/41/37
f 23/32/28 22/31/27 34/43/39 33/42/38
f 35/44/40 36/45/41 37/46/42 38/47/43
f 39/48/44 40/49/45 41/50/46
f 21/30/26 39/48/44 42/51/47 22/31/27
f 43/52/48 44/53/49 45/54/50 46/55/51
f 47/56/52 48/57/53 49/58/54 50/59/55
f 39/48/44 15/24/20 18/27/23 40/49/45
f 39/48/44 41/50/46 42/51/47
f 22/60/27 42/61/47 25/34/30 24/33/29
f 42/62/47 51/63/56 26/35/31 25/34/30
f 52/64/57 53/65/58 54/66/59 55/67/60
f 53/68/58 34/69/39 27/36/32 54/66/59
f 41/70/46 40/71/45 36/45/41 35/44/40
f 40/72/45 56/73/61 37/46/42 36/45/41
f 57/74/62 58/75/63 59/76/64 60/77/65
f 61/78/66 41/79/46 35/44/40 38/47/43
f 42/80/47 41/81/46 44/53/49 43/52/48
f 41/82/46 61/83/66 45/54/50 44/53/49
f 58/84/63 52/85/57 62/86/67 63/87/68
f 51/88/56 42/89/47 43/52/48 46/55/51
f 40/90/45 18/91/23 48/57/53 47/56/52
f 18/92/23 29/93/34 49/58/54 48/57/53
f 64/94/69 57/95/62 65/96/70 66/97/71
f 56/98/61 40/99/45 47/56/52 50/59/55
f 67/100/72 68/101/73 69/102/74 70/103/75 71/104/76 72/105/77 73/106/78
f 68/101/73 74/107/79 75/108/80 69/102/74
f 26/35/31 55/67/60 54/66/59 27/36/32
f 37/46/42 60/77/65 59/76/64 38/47/43
f 45/54/50 63/87/68 62/86/67 46/55/51
f 49/58/54 66/97/71 65/96/70 50/59/55
f 34/109/39 76/110/81 70/103/75
f 29/111/34 77/112/82 64/113/69
f 64/113/69 77/112/82 78/114/83 57/115/62
f 58/116/63 79/117/84 80/118/85 52/119/57
f 57/115/62 78/114/83 79/117/84 58/116/63
f 52/120/57 80/118/85 76/110/81 53/121/58
f 77/112/82 67/100/72 73/106/78 78/114/83
f 79/117/84 72/105/77 71/104/76 80/118/85
f 78/114/83 73/106/78 72/105/77 79/117/84
f 80/118/85 71/104/76 70/103/75 76/110/81
f 34/109/39 53/121/58 76/110/81
f 29/111/34 67/100/72 77/112/82
f 30/122/35 74/107/79 68/101/73 28/123/33
f 32/124/37 75/108/80 74/107/79 30/122/35
f 33/125/38 69/102/74 75/108/80 32/124/37
f 34/109/39 70/103/75 69/102/74 33/125/38
f 34/69/39 22/126/27 24/33/29 27/36/32
f 28/123/33 68/101/73 67/100/72 29/111/34
f 29/93/34 64/127/69 66/97/71 49/58/54
f 50/59/55 65/96/70 57/128/62 56/98/61
f 56/73/61 57/129/62 60/77/65 37/46/42
f 38/47/43 59/76/64 58/130/63 61/78/66
f 61/83/66 58/131/63 63/87/68 45/54/50
f 46/55/51 62/86/67 52/132/57 51/88/56
f 51/63/56 52/133/57 55/67/60 26/35/31
f 23/32/28 31/40/36 20/29/25
f 7/10/8 20/134/25 31/135/36 8/11/9
f 9/14/12 39/136/44 21/137/26 10/15/13
f 8/11/9 31/135/36 19/138/24 12/17/15
f 13/19/17 15/139/20 39/136/44 9/14/12
f 12/17/15 19/138/24 16/140/21 14/21/19
f 14/21/19 16/140/21 15/139/20 13/19/17
f 10/15/13 21/137/26 20/141/25 7/23/8
f 81/142/86 82/143/87 83/144/88
f 81/142/86 84/145/89 85/146/90 82/143/87
f 84/145/89 86/147/91 87/148/92 85/146/90
f 83/144/88 88/149/93 89/150/94
f 89/150/94 88/149/93 90/151/95 91/152/96
f 91/152/96 90/151/95 92/153/97 93/154/98
f 83/144/88 82/155/87 88/149/93
f 82/155/87 85/156/90 90/151/95 88/149/93
f 85/156/90 87/157/92 92/153/97 90/151/95
f 86/147/91 84/145/89 91/152/96 93/154/98
f 84/145/89 81/142/86 89/150/94 91/152/96
f 81/142/86 83/144/88 89/150/94
f 94/158/99 95/159/100 96/160/101
f 94/158/99 97/161/102 98/162/103 95/159/100
f 97/161/102 99/163/104 100/164/105 98/162/103
f 96/160/101 101/165/106 102/166/107
f 102/166/107 101/165/106 103/167/108 104/168/109
f 104/168/109 103/167/108 105/169/110 106/170/111
f 96/160/101 95/171/100 101/165/106
f 95/171/100 98/172/103 103/167/108 101/165/106
f 98/172/103 100/173/105 105/169/110 103/167/108
f 99/163/104 97/161/102 104/168/109 106/170/111
f 97/161/102 94/158/99 102/166/107 104/168/109
f 94/158/99 96/160/101 102/166/107
f 107/174/112 108/175/113 109/176/114
f 107/174/112 109/176/114 110/177/115 111/178/116
f 111/178/116 110/177/115 112/179/117 113/180/118
f 108/175/113 114/181/119 115/182/120
f 114/181/119 116/183/121 117/184/122 115/182/120
f 116/183/121 118/185/123 119/186/124 117/184/122
f 108/175/113 115/182/120 109/187/114
f 109/187/114 115/182/120 117/184/122 110/188/115
f 110/188/115 117/184/122 119/186/124 112/189/117
f 113/180/118 118/185/123 116/183/121 111/178/116
f 111/178/116 116/183/121 114/181/119 107/174/112
f 107/174/112 114/181/119 108/175/113
f 120/190/125 121/191/126 122/192/127
f 120/190/125 122/192/127 123/193/128 124/194/129
f 124/194/129 123/193/128 125/195/130 126/196/131
f 121/191/126 127/197/132 128/198/133
f 127/197/132 129/199/134 130/200/135 128/198/133
f 129/199/134 131/201/136 132/202/137 130/200/135
f 121/191/126 128/198/133 122/203/127
f 122/203/127 128/198/133 130/200/135 123/204/128
f 123/204/128 130/200/135 132/202/137 125/205/130
f 126/196/131 131/201/136 129/199/134 124/194/129
f 124/194/129 129/199/134 127/197/132 120/190/125
f 120/190/125 127/197/132 121/191/126
f 2/13/11 3/12/10 135/206/138 134/207/139
f 3/12/10 1/22/7 133/208/140 135/206/138
f 4/18/16 2/13/11 134/207/139 136/209/141
f 5/20/18 4/18/16 136/209/141 137/210/142
f 11/16/14 5/20/18 137/210/142 139/211/143
f 6/8/6 11/16/14 139/211/143 138/212/144
f 1/9/7 6/8/6 138/212/144 133/213/140
