# Blender v2.92.0 OBJ File: 'loup.blend'
# www.blender.org
mtllib patte_ar_d_1.mtl
o Wolf.007_Wolf.017
v 4.219900 3.178095 -5.801598
v 4.323500 7.514294 -2.040596
v 4.040300 -5.244306 -7.042599
v 1.141900 -8.065606 -3.119999
v 2.072000 6.030493 4.504803
v 0.462900 -4.630207 2.545700
v 2.384800 0.271792 6.170403
v 4.609800 2.802794 -9.006298
v 3.530600 7.510593 -3.875797
v 0.484700 -8.048506 -6.732498
v 3.560400 -5.388605 -9.724298
v 0.409100 7.513895 -1.483196
v -1.345100 -5.561806 -3.403702
v -2.696900 0.792593 -0.607697
v 4.856900 2.409397 -13.286999
v 3.503700 6.620895 -12.446396
v 0.605900 -4.370804 -18.971199
v 3.383700 -3.003203 -17.777699
v -0.668800 7.258297 -12.251997
v -1.798100 -3.079004 -17.813698
v -4.614000 1.542295 -13.424898
v 3.765800 7.640694 -7.265995
v 0.394300 -7.925205 -11.145998
v -0.380800 8.049095 -6.951595
v -1.862100 -5.683505 -9.010998
v -4.278800 1.403094 -7.099895
v 0.465300 -6.883104 -14.805998
v 3.367000 -5.223905 -13.593699
v -2.051700 -5.460104 -13.706799
v -1.924900 -4.780704 -16.005697
v 3.375400 -4.624703 -15.931198
v 0.535600 -6.138104 -17.134098
v 5.808773 2.794750 -5.571297
v 5.912373 7.130949 -1.810295
v 5.629173 -5.627650 -6.812298
v 2.730773 -8.448951 -2.889698
v 3.660873 5.647148 4.735104
v 2.051773 -5.013552 2.776001
v 3.973673 -0.111552 6.400703
vt 0.000000 0.000000
vt 0.000000 0.000000
vt 0.000000 0.000000
vt 0.000000 0.000000
vt 0.000000 0.000000
vt 0.000000 0.000000
vt 0.000000 0.000000
vt 0.085400 0.282700
vt 0.088500 0.217400
vt 0.107900 0.189200
vt 0.104900 0.268400
vt 0.332900 0.439100
vt 0.263600 0.471800
vt 0.285500 0.427400
vt 0.343300 0.412500
vt 0.080500 0.362800
vt 0.120100 0.310400
vt 0.178900 0.462100
vt 0.234900 0.422200
vt 0.106000 0.429200
vt 0.170200 0.376000
vt 0.130500 0.238400
vt 0.312100 0.384700
vt 0.159300 0.266900
vt 0.275900 0.378800
vt 0.214500 0.325300
vt 0.437000 0.447100
vt 0.436500 0.414800
vt 0.137900 0.152600
vt 0.169800 0.192400
vt 0.331400 0.349900
vt 0.357000 0.371000
vt 0.204500 0.227600
vt 0.305500 0.341400
vt 0.259900 0.279000
vt 0.441200 0.362000
vt 0.327700 0.296500
vt 0.316400 0.320300
vt 0.376900 0.322400
vt 0.367100 0.346700
vt 0.341300 0.329100
vt 0.351200 0.307200
vt 0.080500 0.362800
vt 0.085400 0.282700
vt 0.106000 0.429200
vt 0.088500 0.217400
vt 0.263600 0.471800
vt 0.178900 0.462100
vt 0.332900 0.439100
vt 0.437000 0.447100
vn 0.9315 -0.2508 0.2635
vn 0.9790 0.1039 0.1753
vn 0.9182 -0.3935 0.0452
vn 0.8511 -0.3975 0.3430
vn 0.9330 -0.0719 0.3527
vn 0.2035 0.9789 0.0154
vn 0.7382 0.4767 -0.4773
vn 0.9964 0.0041 0.0843
vn 0.4579 0.8826 -0.1066
vn 0.6418 -0.5537 -0.5306
vn -0.4744 -0.8770 0.0761
vn -0.1604 -0.9865 -0.0341
vn 0.8639 -0.4959 -0.0878
vn -0.4206 0.6144 0.6675
vn -0.4581 0.8541 0.2462
vn -0.6322 -0.4089 0.6581
vn -0.8099 -0.5448 0.2175
vn -0.6147 -0.2192 0.7577
vn -0.8968 0.0333 0.4412
vn 0.6709 0.7403 -0.0439
vn -0.0768 -0.9809 -0.1786
vn -0.4503 0.8925 0.0240
vn -0.8328 -0.5511 0.0532
vn -0.9844 0.0886 0.1518
vn 0.9982 -0.0459 0.0380
vn 0.6615 0.7470 -0.0665
vn -0.0043 -0.9566 -0.2915
vn 0.8085 -0.5805 -0.0964
vn -0.5192 0.8521 -0.0660
vn -0.7672 -0.6342 -0.0962
vn -0.9999 0.0146 0.0016
vn -0.7563 -0.4880 -0.4357
vn -0.8587 -0.4268 -0.2837
vn 0.8485 -0.4235 -0.3172
vn 0.8523 -0.4680 -0.2336
vn -0.0119 -0.8531 -0.5216
vn -0.0053 -0.7316 -0.6817
vn -0.0138 0.7107 0.7033
vn 0.1473 0.9141 -0.3778
vn -0.3681 -0.0264 0.9294
vn 0.0102 0.2543 -0.9671
vn -0.2280 -0.9233 -0.3091
vn -0.3843 -0.7003 0.6016
vn 0.0098 -0.2874 -0.9578
usemtl Wolf
s off
f 37/1/1 33/2/1 34/3/1
f 39/4/2 33/2/2 37/1/2
f 39/4/3 38/5/3 33/2/3
f 36/6/4 35/7/4 38/5/4
f 38/5/5 35/7/5 33/2/5
s 1
f 2/8/6 1/9/7 8/10/8 9/11/9
f 3/12/10 4/13/11 10/14/12 11/15/13
f 5/16/14 2/8/6 9/11/9 12/17/15
f 4/13/11 6/18/16 13/19/17 10/14/12
f 7/20/18 5/16/14 12/17/15 14/21/19
f 6/18/16 7/20/18 14/21/19 13/19/17
f 8/10/8 22/22/20 9/11/9
f 10/14/12 23/23/21 11/15/13
f 9/11/9 22/22/20 24/24/22 12/17/15
f 13/19/17 25/25/23 23/23/21 10/14/12
f 12/17/15 24/24/22 26/26/24 14/21/19
f 14/21/19 26/26/24 25/25/23 13/19/17
f 1/27/7 3/12/10 11/15/13 8/28/8
f 8/10/8 15/29/25 16/30/26 22/22/20
f 23/23/21 27/31/27 28/32/28 11/15/13
f 22/22/20 16/30/26 19/33/29 24/24/22
f 25/25/23 29/34/30 27/31/27 23/23/21
f 24/24/22 19/33/29 21/35/31 26/26/24
f 26/26/24 21/35/31 29/34/30 25/25/23
f 11/15/13 28/32/28 15/36/25 8/28/8
f 20/37/32 30/38/33 29/34/30 21/35/31
f 18/39/34 15/36/25 28/32/28 31/40/35
f 27/31/27 32/41/36 31/40/35 28/32/28
f 29/34/30 30/38/33 32/41/36 27/31/27
f 32/41/36 17/42/37 18/39/34 31/40/35
f 30/38/33 20/37/32 17/42/37 32/41/36
f 2/8/6 5/16/14 37/43/38 34/44/39
f 5/16/14 7/20/18 39/45/40 37/43/38
f 1/9/7 2/8/6 34/44/39 33/46/41
f 6/18/16 4/13/11 36/47/42 38/48/43
f 7/20/18 6/18/16 38/48/43 39/45/40
f 4/13/11 3/12/10 35/49/44 36/47/42
f 3/12/10 1/27/7 33/50/41 35/49/44
