# Blender v2.92.0 OBJ File: 'loup.blend'
# www.blender.org
mtllib patte_av_d_3.mtl
o patte_av_d_3_Wolf.020
v 0.855100 -2.700902 0.553498
v -0.621300 -1.992102 0.416198
v -0.880600 -3.382300 -5.752502
v 0.504100 -4.340802 -5.829403
v -1.411600 -0.281002 0.122598
v -1.401800 -1.271201 -5.496902
v -0.382400 2.523398 -1.009102
v -0.392100 0.961100 -4.537902
v 2.105300 2.524199 -1.007202
v 1.941800 0.954599 -4.541902
v 3.071100 -0.281002 0.122598
v 3.393600 -1.573801 -4.712802
v -1.226800 -4.212800 -7.182102
v -1.631300 -1.641901 -7.345303
v -2.284800 -2.366301 -9.707003
v -3.600100 -5.817100 -10.586903
v -0.798300 -0.100501 -7.155202
v 2.100700 -0.100501 -7.150202
v 2.936800 -3.220501 -7.770002
v 4.304200 -6.953401 -10.298703
v 3.384000 -3.100700 -9.986902
v 3.549800 -10.556399 -10.014004
v 2.165900 -11.280299 -9.589904
v 2.166400 -12.158500 -12.203004
v 3.848500 -11.467200 -12.213004
v -2.454200 -2.685200 -11.239802
v -3.916200 -5.776500 -11.615003
v -0.959000 -0.428600 -8.643602
v 2.260400 -0.458100 -8.638002
v 3.337500 -3.085500 -11.206403
v 4.130400 -6.870299 -11.610203
v -0.450100 -11.763299 -9.422804
v -2.060300 -11.043700 -9.605604
v -2.060900 -11.947101 -12.201204
v -0.449500 -12.648200 -12.199203
v 0.374500 -5.106603 -6.947103
v -1.828100 -8.098001 -9.767103
v 0.027000 -8.886100 -9.390304
v 1.882200 -8.715199 -9.647304
v 1.465700 -11.394300 -9.564604
v -0.065700 -11.723199 -9.452304
v -0.065400 -12.736300 -12.191704
v 1.465300 -12.405999 -12.192904
v -2.455500 -10.421100 -9.852803
v -3.715400 -9.461400 -10.355103
v -4.015000 -10.578599 -12.197603
v -2.454900 -11.496900 -12.192004
v 2.123800 -8.682900 -12.040803
v 2.200600 -8.642400 -12.871503
v 4.195400 -7.410699 -12.871503
v 4.002400 -10.465301 -12.871504
v 2.210700 -11.225101 -12.871504
v -1.911700 -8.075500 -11.899504
v -1.946300 -8.035899 -12.871503
v 0.149700 -9.262599 -12.871504
v -0.278600 -11.755200 -12.871504
v -2.030800 -11.021300 -12.871504
v 0.116400 -9.182401 -11.962004
v 1.658100 -11.557000 -12.871504
v -0.000500 -11.868501 -12.871504
v -4.240100 -6.582400 -12.871503
v -2.273300 -10.650500 -12.871504
v -4.021800 -9.633901 -12.871504
v -2.878300 -5.229400 -12.871503
v -1.634800 -3.181900 -12.453302
v 2.433000 -3.181900 -12.453302
v 3.188200 -5.274699 -12.871503
v 2.137600 -7.359900 -12.871503
v 0.226100 -7.912799 -12.871503
v -1.731400 -6.774199 -12.871503
v -0.942500 -1.023500 -9.921302
v 2.164700 -1.088301 -9.921302
v 3.300500 -6.799199 -12.632603
v -3.413300 -6.065299 -12.632603
v -1.848500 -7.669200 -12.632603
v 0.191300 -8.775399 -12.632604
v 2.166200 -8.191899 -12.632604
v 2.674800 -2.212001 -7.184202
v 2.622300 -0.870201 -5.617202
v 2.209500 -2.734601 -6.141702
v 4.162100 -2.059200 -7.081502
v 3.646200 -1.407301 -7.116602
v 3.534400 -2.434901 -7.278203
v 3.347000 -2.021300 -7.751903
v 4.009000 -2.063301 -7.928302
v -0.413100 2.982899 1.250698
v 2.024900 2.983098 1.241598
v 0.088100 3.208299 0.120799
v 1.579200 3.208798 0.117199
v -1.572500 -12.553500 -10.898604
v -0.712900 -12.553500 -10.898604
v -1.142700 -13.712100 -11.445204
v -1.696400 -11.524699 -10.782003
v -0.589000 -11.524699 -10.782003
v -1.696400 -10.708400 -10.563303
v -0.589000 -10.708400 -10.563303
v -0.895800 -12.816300 -10.335004
v -1.389600 -12.816300 -10.335004
v -0.824600 -11.768399 -9.872503
v -1.460800 -11.768399 -9.872503
v -0.824600 -10.952100 -9.653704
v -1.460800 -10.952100 -9.653704
v -3.390700 -10.937100 -11.277504
v -2.630100 -10.870500 -11.277504
v -2.917400 -11.967200 -11.671504
v -3.580500 -10.030700 -11.254004
v -2.600600 -9.945001 -11.254004
v -3.645000 -9.294200 -11.123703
v -2.665000 -9.208499 -11.123703
v -2.775500 -11.072900 -10.758504
v -3.212500 -11.111100 -10.758504
v -2.796400 -10.107900 -10.430304
v -3.359400 -10.157199 -10.430304
v -2.860800 -9.371400 -10.299904
v -3.423900 -9.420699 -10.299904
v 1.134800 -12.829499 -10.874304
v 0.660600 -13.911300 -11.430504
v 0.273400 -12.694900 -10.890704
v 0.187800 -11.655000 -10.775304
v 1.297700 -11.828500 -10.754204
v 0.218400 -10.845300 -10.555603
v 1.328400 -11.018800 -10.534404
v 0.941700 -13.061601 -10.314505
v 0.446700 -12.984200 -10.323904
v 1.052400 -12.033299 -9.849403
v 0.414700 -11.933600 -9.861504
v 1.083100 -11.223599 -9.629704
v 0.445400 -11.123900 -9.641804
v 3.257500 -12.015201 -11.216604
v 2.744300 -12.962899 -11.620904
v 2.497600 -11.830100 -11.231004
v 2.502800 -10.907399 -11.207004
v 3.481700 -11.145999 -11.188404
v 2.595000 -10.186999 -11.074604
v 3.574000 -10.425599 -11.056004
v 3.072200 -12.159900 -10.701204
v 2.635700 -12.053599 -10.709404
v 3.255400 -11.236800 -10.369003
v 2.692900 -11.099700 -10.379704
v 3.347600 -10.516400 -10.236604
v 2.785200 -10.379300 -10.247303
vt 0.550000 0.798500
vt 0.550900 0.780700
vt 0.622200 0.791700
vt 0.623800 0.810800
vt 0.553700 0.760800
vt 0.617800 0.767700
vt 0.567100 0.729100
vt 0.607000 0.740800
vt 0.574500 0.703700
vt 0.614600 0.715100
vt 0.579500 0.669600
vt 0.633800 0.688700
vt 0.549000 0.834400
vt 0.597000 0.847000
vt 0.723000 0.862900
vt 0.734300 0.846900
vt 0.757600 0.852200
vt 0.771100 0.884200
vt 0.735500 0.825800
vt 0.710000 0.824400
vt 0.696000 0.853500
vt 0.657800 0.879800
vt 0.676000 0.840900
vt 0.634700 0.907000
vt 0.640800 0.922900
vt 0.621900 0.934200
vt 0.614600 0.912200
vt 0.773300 0.857600
vt 0.781400 0.879200
vt 0.742900 0.821500
vt 0.707100 0.816400
vt 0.664600 0.834600
vt 0.645200 0.871600
vt 0.732800 0.956300
vt 0.753500 0.949300
vt 0.766100 0.973200
vt 0.739900 0.983800
vt 0.707600 0.874200
vt 0.753100 0.910600
vt 0.707700 0.924900
vt 0.673700 0.916000
vt 0.678700 0.951700
vt 0.694100 0.955800
vt 0.690900 0.976700
vt 0.673200 0.971000
vt 0.781400 0.926300
vt 0.788100 0.918700
vt 0.806700 0.929700
vt 0.795000 0.944300
vt 0.655500 0.940700
vt 0.603000 0.858100
vt 0.635900 0.863100
vt 0.619000 0.892600
vt 0.603700 0.890800
vt 0.763400 0.933900
vt 0.773700 0.943200
vt 0.798400 0.955400
vt 0.784000 0.971600
vt 0.774000 0.967000
vt 0.716100 0.956800
vt 0.626400 0.971300
vt 0.642700 0.943500
vt 0.663100 0.970700
vt 0.657400 0.980500
vt 0.797900 0.877800
vt 0.835200 0.885700
vt 0.828000 0.920500
vt 0.813400 0.919500
vt 0.541800 0.962200
vt 0.516700 0.957800
vt 0.501500 0.917400
vt 0.518900 0.902100
vt 0.543500 0.903800
vt 0.556600 0.921000
vt 0.553000 0.945200
vt 0.480900 0.963400
vt 0.469800 0.931400
vt 0.596100 0.904100
vt 0.788100 0.986500
vt 0.668100 0.989600
vt 0.835900 0.937400
vt 0.522800 0.879400
vt 0.532400 0.892300
vt 0.547500 0.979100
vt 0.552200 0.966100
vt 0.561800 0.971500
vt 0.562700 0.943100
vt 0.567300 0.942800
vt 0.570900 0.916200
vt 0.565500 0.917900
vt 0.551600 0.899900
vt 0.556400 0.897600
vt 0.537400 0.881000
vt 0.462000 0.969100
vt 0.509300 0.972100
vt 0.454600 0.933700
vt 0.489000 0.907700
vt 0.848900 0.892700
vt 0.813000 0.960500
vt 0.632100 0.986000
vt 0.591500 0.864100
vt 0.640700 0.795900
vt 0.638400 0.812700
vt 0.638700 0.770200
vt 0.636100 0.752700
vt 0.644900 0.722600
vt 0.659700 0.703600
vt 0.640400 0.699700
vt 0.623300 0.848500
vt 0.617000 0.836400
vt 0.653300 0.687100
vt 0.652400 0.692400
vt 0.643400 0.673800
vt 0.654300 0.682400
vt 0.659100 0.694100
vt 0.653300 0.675900
vt 0.658900 0.680900
vt 0.659600 0.687400
vt 0.544100 0.722900
vt 0.556200 0.720700
vt 0.552000 0.698400
vt 0.560800 0.706000
vt 0.635200 0.847200
vt 0.664900 0.707900
vt 0.402800 0.505400
vt 0.414200 0.490100
vt 0.436200 0.515200
vt 0.377900 0.497400
vt 0.389600 0.476600
vt 0.357300 0.492300
vt 0.368000 0.469500
vt 0.400400 0.524900
vt 0.399800 0.516600
vt 0.371400 0.528100
vt 0.371400 0.515500
vt 0.349700 0.529800
vt 0.350000 0.514000
vt 0.406400 0.536200
vt 0.378500 0.547300
vt 0.354900 0.550600
vt 0.402800 0.505400
vt 0.414200 0.490100
vt 0.436200 0.515200
vt 0.377900 0.497400
vt 0.389600 0.476600
vt 0.357300 0.492300
vt 0.368000 0.469500
vt 0.400400 0.524900
vt 0.399800 0.516600
vt 0.371400 0.528100
vt 0.371400 0.515500
vt 0.349700 0.529800
vt 0.350000 0.514000
vt 0.406400 0.536200
vt 0.378500 0.547300
vt 0.354900 0.550600
vt 0.402800 0.505400
vt 0.436200 0.515200
vt 0.414200 0.490100
vt 0.389600 0.476600
vt 0.377900 0.497400
vt 0.368000 0.469500
vt 0.357300 0.492300
vt 0.399800 0.516600
vt 0.400400 0.524900
vt 0.371400 0.515500
vt 0.371400 0.528100
vt 0.350000 0.514000
vt 0.349700 0.529800
vt 0.406400 0.536200
vt 0.378500 0.547300
vt 0.354900 0.550600
vt 0.402800 0.505400
vt 0.436200 0.515200
vt 0.414200 0.490100
vt 0.389600 0.476600
vt 0.377900 0.497400
vt 0.368000 0.469500
vt 0.357300 0.492300
vt 0.399800 0.516600
vt 0.400400 0.524900
vt 0.371400 0.515500
vt 0.371400 0.528100
vt 0.350000 0.514000
vt 0.349700 0.529800
vt 0.406400 0.536200
vt 0.378500 0.547300
vt 0.354900 0.550600
vn 0.1320 -0.9651 0.2264
vn -0.7902 -0.5991 0.1289
vn -0.7743 -0.5395 0.3307
vn 0.1557 -0.9096 0.3851
vn -0.9903 0.1294 -0.0515
vn -0.9947 0.0905 0.0479
vn -0.6288 0.7381 -0.2447
vn -0.4882 0.8101 -0.3247
vn 0.6447 0.7271 -0.2361
vn 0.4792 0.7977 -0.3662
vn 0.9987 -0.0490 -0.0158
vn 0.9835 -0.1433 0.1101
vn -0.6893 -0.4424 0.5738
vn -0.9714 0.1849 0.1490
vn -0.8958 0.4407 0.0578
vn -0.8659 0.0648 0.4960
vn -0.5207 0.8351 -0.1775
vn 0.6102 0.7703 -0.1854
vn 0.8255 -0.0751 0.5594
vn 0.9302 -0.0962 0.3543
vn 0.9534 0.2945 0.0648
vn 0.6772 -0.3341 0.6556
vn -0.3500 -0.5938 0.7245
vn -0.4525 -0.8576 -0.2446
vn 0.7126 -0.6768 -0.1850
vn -0.6925 0.6228 -0.3642
vn -0.9484 0.3171 -0.0005
vn -0.4283 0.8730 -0.2331
vn 0.5467 0.8050 -0.2304
vn 0.8389 0.4266 -0.3381
vn 0.9602 0.1693 -0.2222
vn 0.3862 -0.6207 0.6824
vn -0.7211 -0.2878 0.6302
vn -0.7451 -0.6205 -0.2445
vn 0.3746 -0.8971 -0.2343
vn 0.0645 -0.6389 0.7666
vn -0.4228 -0.1668 0.8907
vn -0.0634 -0.2790 0.9582
vn 0.2712 -0.2622 0.9261
vn 0.6073 -0.4307 0.6676
vn -0.5422 -0.5122 0.6661
vn -0.5397 -0.8121 -0.2219
vn 0.6110 -0.7689 -0.1885
vn 0.2136 -0.6162 0.7580
vn -0.7647 -0.1510 0.6265
vn -0.7834 -0.6086 -0.1261
vn 0.3178 -0.9324 -0.1723
vn -0.0854 -0.9956 -0.0397
vn -0.1007 0.1739 -0.9796
vn 0.6826 0.2948 -0.6687
vn 0.7206 -0.2018 -0.6633
vn -0.5534 -0.3020 -0.7762
vn -0.0952 -0.9952 -0.0214
vn 0.1484 0.2224 -0.9636
vn 0.0148 0.1407 -0.9899
vn 0.5657 -0.3812 -0.7312
vn -0.6803 -0.1571 -0.7159
vn -0.1137 -0.9887 0.0979
vn 0.6477 -0.3133 -0.6945
vn -0.6130 -0.2580 -0.7468
vn -0.7434 0.2790 -0.6079
vn 0.5746 -0.4041 -0.7117
vn -0.6479 -0.1829 -0.7395
vn -0.4184 0.2825 -0.8632
vn -0.2426 0.5334 -0.8103
vn 0.3244 0.5180 -0.7915
vn 0.5050 0.2330 -0.8311
vn 0.2131 -0.1589 -0.9640
vn -0.0259 -0.1672 -0.9856
vn -0.1350 -0.1263 -0.9828
vn -0.3819 0.7954 -0.4707
vn 0.4576 0.7482 -0.4805
vn 0.3536 0.1349 -0.9256
vn -0.3525 0.3356 -0.8736
vn 0.1328 0.1458 -0.9804
vn 0.0216 0.1764 -0.9841
vn -0.1567 0.1463 -0.9768
vn -0.7232 -0.6263 -0.2910
vn 0.6792 0.6641 -0.3125
vn 0.5925 -0.8054 0.0156
vn 0.9721 -0.2108 0.1032
vn 0.3098 0.9152 -0.2576
vn 0.1433 -0.9654 -0.2178
vn -0.4639 0.0390 -0.8850
vn 0.5231 -0.0884 -0.8477
vn -0.6660 0.7459 -0.0100
vn -0.2645 0.9488 -0.1730
vn 0.5934 0.8046 0.0239
vn 0.2651 0.9497 -0.1670
vn -0.8263 -0.0347 -0.5622
vn 0.8263 -0.0347 -0.5622
vn 0.0000 -0.7994 -0.6008
vn -0.7796 0.0745 -0.6218
vn 0.7796 0.0745 -0.6218
vn -0.7883 0.1592 -0.5944
vn 0.7883 0.1592 -0.5944
vn 0.5601 -0.5415 0.6269
vn -0.5601 -0.5415 0.6269
vn 0.6073 -0.2797 0.7436
vn -0.6073 -0.2797 0.7436
vn 0.6153 -0.2041 0.7614
vn -0.6153 -0.2041 0.7614
vn -0.8159 -0.1553 -0.5570
vn 0.8304 -0.0112 -0.5570
vn 0.0740 -0.8455 -0.5288
vn -0.7783 -0.0480 -0.6260
vn 0.7748 0.0879 -0.6261
vn -0.7947 0.0377 -0.6058
vn 0.7759 0.1751 -0.6060
vn 0.6003 -0.4341 0.6718
vn -0.5158 -0.5317 0.6718
vn 0.6237 -0.1600 0.7651
vn -0.5863 -0.2659 0.7652
vn 0.6250 -0.0828 0.7763
vn -0.6014 -0.1899 0.7761
vn 0.8409 -0.0737 -0.5361
vn -0.0380 -0.7958 -0.6044
vn -0.8110 -0.0023 -0.5851
vn -0.7622 0.1123 -0.6375
vn 0.7957 0.0369 -0.6046
vn -0.7900 0.1883 -0.5835
vn 0.7929 0.1314 -0.5950
vn 0.4968 -0.5874 0.6389
vn -0.6164 -0.4973 0.6105
vn 0.5703 -0.3138 0.7591
vn -0.6401 -0.2489 0.7268
vn 0.5564 -0.2372 0.7963
vn -0.6659 -0.1718 0.7260
vn 0.8222 -0.1974 -0.5339
vn -0.1154 -0.8357 -0.5370
vn -0.8186 0.0172 -0.5741
vn -0.7606 0.1251 -0.6371
vn 0.7865 -0.0860 -0.6116
vn -0.7810 0.2082 -0.5888
vn 0.7933 0.0103 -0.6087
vn 0.4520 -0.5752 0.6817
vn -0.6461 -0.3923 0.6547
vn 0.5517 -0.2995 0.7784
vn -0.6468 -0.1315 0.7512
vn 0.5451 -0.2186 0.8094
vn -0.6649 -0.0518 0.7452
usemtl Wolf
s 1
f 1/1/1 2/2/2 3/3/3 4/4/4
f 2/2/2 5/5/5 6/6/6 3/3/3
f 5/5/5 7/7/7 8/8/8 6/6/6
f 7/7/7 9/9/9 10/10/10 8/8/8
f 9/9/9 11/11/11 12/12/12 10/10/10
f 11/13/11 1/1/1 4/4/4 12/14/12
f 13/15/13 14/16/14 15/17/15 16/18/16
f 14/16/14 17/19/17 15/17/15
f 18/20/18 19/21/19 20/22/20 21/23/21
f 22/24/22 23/25/23 24/26/24 25/27/25
f 16/18/16 15/17/15 26/28/26 27/29/27
f 15/17/15 17/19/17 28/30/28 26/28/26
f 17/19/17 18/20/18 29/31/29 28/30/28
f 18/20/18 21/23/21 30/32/30 29/31/29
f 21/23/21 20/22/20 31/33/31 30/32/30
f 32/34/32 33/35/33 34/36/34 35/37/35
f 36/38/36 37/39/37 38/40/38
f 19/21/19 36/38/36 39/41/39 20/22/20
f 40/42/40 41/43/41 42/44/42 43/45/43
f 44/46/44 45/47/45 46/48/46 47/49/47
f 36/38/36 13/15/13 16/18/16 37/39/37
f 36/38/36 38/40/38 39/41/39
f 20/22/20 39/41/39 23/25/23 22/24/22
f 39/41/39 48/50/48 24/26/24 23/25/23
f 49/51/49 50/52/50 51/53/51 52/54/52
f 50/52/50 31/33/31 25/27/25 51/53/51
f 38/40/38 37/39/37 33/35/33 32/34/32
f 37/39/37 53/55/53 34/36/34 33/35/33
f 54/56/54 55/57/55 56/58/56 57/59/57
f 58/60/58 38/40/38 32/34/32 35/37/35
f 39/41/39 38/40/38 41/43/41 40/42/40
f 38/40/38 58/60/58 42/44/42 41/43/41
f 55/61/55 49/62/49 59/63/59 60/64/60
f 48/50/48 39/41/39 40/42/40 43/45/43
f 37/39/37 16/18/16 45/47/45 44/46/44
f 16/18/16 27/29/27 46/48/46 45/47/45
f 61/65/61 54/66/54 62/67/62 63/68/63
f 53/55/53 37/39/37 44/46/44 47/49/47
f 64/69/64 65/70/65 66/71/66 67/72/67 68/73/68 69/74/69 70/75/70
f 65/70/65 71/76/71 72/77/72 66/71/66
f 24/78/24 52/54/52 51/53/51 25/27/25
f 34/36/34 57/59/57 56/58/56 35/79/35
f 42/80/42 60/64/60 59/63/59 43/45/43
f 46/48/46 63/68/63 62/67/62 47/81/47
f 31/82/31 73/83/73 67/72/67
f 27/84/27 74/85/74 61/86/61
f 61/86/61 74/85/74 75/87/75 54/88/54
f 55/89/55 76/90/76 77/91/77 49/92/49
f 54/88/54 75/87/75 76/90/76 55/89/55
f 49/92/49 77/91/77 73/83/73 50/93/50
f 74/85/74 64/69/64 70/75/70 75/87/75
f 76/90/76 69/74/69 68/73/68 77/91/77
f 75/87/75 70/75/70 69/74/69 76/90/76
f 77/91/77 68/73/68 67/72/67 73/83/73
f 31/82/31 50/93/50 73/83/73
f 27/84/27 64/69/64 74/85/74
f 28/94/28 71/76/71 65/70/65 26/95/26
f 29/96/29 72/77/72 71/76/71 28/94/28
f 30/97/30 66/71/66 72/77/72 29/96/29
f 31/82/31 67/72/67 66/71/66 30/97/30
f 31/33/31 20/22/20 22/24/22 25/27/25
f 26/95/26 65/70/65 64/69/64 27/84/27
f 27/29/27 61/65/61 63/68/63 46/48/46
f 47/81/47 62/67/62 54/66/54 53/98/53
f 53/55/53 54/56/54 57/59/57 34/36/34
f 35/79/35 56/58/56 55/57/55 58/99/58
f 58/100/58 55/61/55 60/64/60 42/80/42
f 43/45/43 59/63/59 49/62/49 48/50/48
f 48/101/48 49/51/49 52/54/52 24/78/24
f 3/3/3 13/102/13 36/103/36 4/4/4
f 6/6/6 14/104/14 13/102/13 3/3/3
f 8/8/8 17/105/17 14/104/14 6/6/6
f 10/10/10 18/106/18 17/105/17 8/8/8
f 78/107/78 10/10/10 79/108/79
f 4/4/4 78/109/78 80/110/80
f 12/12/12 81/111/81 82/112/82 79/108/79
f 80/113/80 83/114/83 81/111/81 12/12/12
f 79/108/79 82/112/82 84/115/84 78/107/78
f 78/116/78 84/117/84 83/114/83 80/113/80
f 81/111/81 85/118/85 82/112/82
f 83/114/83 85/118/85 81/111/81
f 82/112/82 85/118/85 84/115/84
f 84/117/84 85/118/85 83/114/83
f 5/5/5 86/119/86 88/120/87 7/7/7
f 87/121/88 11/11/11 9/9/9 89/122/89
f 87/121/88 89/122/89 88/120/87 86/119/86
f 89/122/89 9/9/9 7/7/7 88/120/87
f 4/4/4 80/110/80 12/14/12
f 4/4/4 36/103/36 19/123/19 78/109/78
f 12/12/12 79/108/79 10/10/10
f 78/107/78 19/124/19 18/106/18 10/10/10
f 90/125/90 91/126/91 92/127/92
f 90/125/90 93/128/93 94/129/94 91/126/91
f 93/128/93 95/130/95 96/131/96 94/129/94
f 92/127/92 97/132/97 98/133/98
f 98/133/98 97/132/97 99/134/99 100/135/100
f 100/135/100 99/134/99 101/136/101 102/137/102
f 92/127/92 91/138/91 97/132/97
f 91/138/91 94/139/94 99/134/99 97/132/97
f 94/139/94 96/140/96 101/136/101 99/134/99
f 95/130/95 93/128/93 100/135/100 102/137/102
f 93/128/93 90/125/90 98/133/98 100/135/100
f 90/125/90 92/127/92 98/133/98
f 103/141/103 104/142/104 105/143/105
f 103/141/103 106/144/106 107/145/107 104/142/104
f 106/144/106 108/146/108 109/147/109 107/145/107
f 105/143/105 110/148/110 111/149/111
f 111/149/111 110/148/110 112/150/112 113/151/113
f 113/151/113 112/150/112 114/152/114 115/153/115
f 105/143/105 104/154/104 110/148/110
f 104/154/104 107/155/107 112/150/112 110/148/110
f 107/155/107 109/156/109 114/152/114 112/150/112
f 108/146/108 106/144/106 113/151/113 115/153/115
f 106/144/106 103/141/103 111/149/111 113/151/113
f 103/141/103 105/143/105 111/149/111
f 116/157/116 117/158/117 118/159/118
f 116/157/116 118/159/118 119/160/119 120/161/120
f 120/161/120 119/160/119 121/162/121 122/163/122
f 117/158/117 123/164/123 124/165/124
f 123/164/123 125/166/125 126/167/126 124/165/124
f 125/166/125 127/168/127 128/169/128 126/167/126
f 117/158/117 124/165/124 118/170/118
f 118/170/118 124/165/124 126/167/126 119/171/119
f 119/171/119 126/167/126 128/169/128 121/172/121
f 122/163/122 127/168/127 125/166/125 120/161/120
f 120/161/120 125/166/125 123/164/123 116/157/116
f 116/157/116 123/164/123 117/158/117
f 129/173/129 130/174/130 131/175/131
f 129/173/129 131/175/131 132/176/132 133/177/133
f 133/177/133 132/176/132 134/178/134 135/179/135
f 130/174/130 136/180/136 137/181/137
f 136/180/136 138/182/138 139/183/139 137/181/137
f 138/182/138 140/184/140 141/185/141 139/183/139
f 130/174/130 137/181/137 131/186/131
f 131/186/131 137/181/137 139/183/139 132/187/132
f 132/187/132 139/183/139 141/185/141 134/188/134
f 135/179/135 140/184/140 138/182/138 133/177/133
f 133/177/133 138/182/138 136/180/136 129/173/129
f 129/173/129 136/180/136 130/174/130
