# Blender v2.92.0 OBJ File: 'loup.blend'
# www.blender.org
mtllib patte_av_g_2.mtl
o patte_av_g_2_Wolf.012
v -4.203800 -0.211105 1.646198
v -0.873200 -5.269005 1.390898
v -0.893700 -3.435603 -6.924402
v 0.745400 -2.671403 -6.992702
v 1.825000 -4.388805 1.413797
v 1.676600 -0.386503 -6.752401
v 2.945300 -0.211105 2.257198
v 0.411100 2.761797 -5.740602
v 1.094300 3.781595 -0.293303
v -1.570100 2.763597 -5.740803
v -1.904700 3.785495 -0.139801
v -3.144600 -0.386503 -6.752401
v -0.855100 -3.100903 -12.446502
v 0.621400 -2.392102 -12.583802
v 1.411600 -0.681003 -12.877402
v -3.071100 -0.681003 -12.877402
v 0.413100 2.582898 -11.749302
v -2.024900 2.583097 -11.758402
vt 0.392300 0.816700
vt 0.486600 0.793500
vt 0.486000 0.774700
vt 0.388100 0.783600
vt 0.484800 0.747000
vt 0.382500 0.731700
vt 0.479900 0.706200
vt 0.419000 0.689700
vt 0.487600 0.682900
vt 0.428900 0.658500
vt 0.514200 0.650700
vt 0.434600 0.605500
vt 0.427000 0.872700
vt 0.493400 0.832900
vt 0.550000 0.798500
vt 0.550900 0.780700
vt 0.553700 0.760800
vt 0.544100 0.722900
vt 0.552000 0.698400
vt 0.579500 0.669600
vt 0.549000 0.834400
vn -0.1426 -0.9080 -0.3940
vn -0.2602 -0.9556 -0.1383
vn 0.7230 -0.6769 -0.1383
vn 0.7874 -0.5812 -0.2055
vn 0.9957 0.0183 -0.0909
vn 0.9814 0.0058 -0.1920
vn 0.5367 0.8325 -0.1373
vn 0.6306 0.7516 -0.1935
vn -0.5102 0.8543 -0.0993
vn -0.5568 0.8079 -0.1928
vn -0.9953 -0.0725 -0.0636
vn -0.9584 -0.1507 -0.2422
vn -0.2641 -0.9639 -0.0329
vn 0.7704 -0.6354 -0.0512
vn 0.9998 -0.0122 -0.0143
vn 0.6331 0.7738 0.0230
vn -0.6275 0.7768 0.0534
vn -0.9776 -0.2038 0.0526
usemtl Wolf
s 1
f 2/1/1 3/2/2 4/3/3 5/4/4
f 5/4/4 4/3/3 6/5/5 7/6/6
f 7/6/6 6/5/5 8/7/7 9/8/8
f 9/8/8 8/7/7 10/9/9 11/10/10
f 11/10/10 10/9/9 12/11/11 1/12/12
f 1/13/12 12/14/11 3/2/2 2/1/1
f 4/3/3 3/2/2 13/15/13 14/16/14
f 6/5/5 4/3/3 14/16/14 15/17/15
f 8/7/7 6/5/5 15/17/15 17/18/16
f 10/9/9 8/7/7 17/18/16 18/19/17
f 12/11/11 10/9/9 18/19/17 16/20/18
f 3/2/2 12/14/11 16/21/18 13/15/13
