# Blender v2.92.0 OBJ File: 'loup.blend'
# www.blender.org
mtllib patte_av_d_2.mtl
o patte_av_d_2_Wolf.014
v 4.203800 -0.211105 1.646198
v 0.873200 -5.269005 1.390898
v -1.825000 -4.388805 1.413797
v -0.745400 -2.671403 -6.992702
v 0.893700 -3.435603 -6.924402
v -2.945300 -0.211105 2.257198
v -1.676500 -0.386503 -6.752401
v -1.094300 3.781595 -0.293303
v -0.411100 2.761797 -5.740602
v 1.904700 3.785495 -0.139801
v 1.570100 2.763597 -5.740803
v 3.144600 -0.386503 -6.752401
v 0.855100 -3.100903 -12.446502
v -0.621300 -2.392102 -12.583802
v -1.411600 -0.681003 -12.877402
v 3.071100 -0.681003 -12.877402
v -0.413100 2.582898 -11.749302
v 2.024900 2.583097 -11.758402
vt 0.392300 0.816700
vt 0.388100 0.783600
vt 0.486000 0.774700
vt 0.486600 0.793500
vt 0.382500 0.731700
vt 0.484800 0.747000
vt 0.419000 0.689700
vt 0.479900 0.706200
vt 0.428900 0.658500
vt 0.487600 0.682900
vt 0.434600 0.605500
vt 0.514200 0.650700
vt 0.427000 0.872700
vt 0.493400 0.832900
vt 0.550900 0.780700
vt 0.550000 0.798500
vt 0.553700 0.760800
vt 0.544100 0.722900
vt 0.552000 0.698400
vt 0.579500 0.669600
vt 0.549000 0.834400
vn 0.2775 -0.8601 -0.4281
vn -0.7621 -0.5912 -0.2640
vn -0.7230 -0.6769 -0.1383
vn 0.2602 -0.9556 -0.1383
vn -0.9817 -0.0087 -0.1902
vn -0.9957 0.0183 -0.0909
vn -0.6163 0.7591 -0.2097
vn -0.5367 0.8325 -0.1373
vn 0.5499 0.8150 -0.1827
vn 0.5102 0.8543 -0.0993
vn 0.9704 -0.0643 -0.2327
vn 0.9953 -0.0725 -0.0636
vn -0.7187 -0.6953 -0.0068
vn 0.2508 -0.9680 -0.0127
vn -0.9942 -0.1073 0.0072
vn -0.5861 0.8102 -0.0064
vn 0.6615 0.7491 0.0357
vn 0.9715 -0.2327 0.0464
usemtl Wolf
s 1
f 2/1/1 3/2/2 4/3/3 5/4/4
f 3/2/2 6/5/5 7/6/6 4/3/3
f 6/5/5 8/7/7 9/8/8 7/6/6
f 8/7/7 10/9/9 11/10/10 9/8/8
f 10/9/9 1/11/11 12/12/12 11/10/10
f 1/13/11 2/1/1 5/4/4 12/14/12
f 4/3/3 14/15/13 13/16/14 5/4/4
f 7/6/6 15/17/15 14/15/13 4/3/3
f 9/8/8 17/18/16 15/17/15 7/6/6
f 11/10/10 18/19/17 17/18/16 9/8/8
f 12/12/12 16/20/18 18/19/17 11/10/10
f 5/4/4 13/16/14 16/21/18 12/14/12
