# Blender v2.92.0 OBJ File: 'loup.blend'
# www.blender.org
mtllib queue_4.mtl
o queue4_Wolf.006
v -2.056000 -9.093117 3.751106
v -2.582000 2.549591 3.114910
v -4.383900 2.549591 0.224213
v -3.875800 -9.093117 0.412006
v -2.192400 -9.093117 -3.086391
v -2.525400 2.549591 -3.078388
v 0.000000 2.549591 -3.696590
v 0.000000 -9.093117 -4.958393
v -2.153400 11.436295 2.648613
v -3.348600 11.436295 0.239712
v 0.000000 2.549591 3.926613
v 0.000000 11.436295 3.518810
v -2.115900 11.436295 -2.369087
v 0.000000 -9.093117 5.260609
v 0.000000 11.436295 -3.158588
v 2.056000 -9.093117 3.751106
v 3.875800 -9.093117 0.412006
v 4.383900 2.549591 0.224213
v 2.582000 2.549591 3.114910
v 2.192400 -9.093117 -3.086391
v 2.525400 2.549591 -3.078388
v 3.348600 11.436295 0.239712
v 2.153400 11.436295 2.648613
v 2.115900 11.436295 -2.369087
vt 0.457500 0.538100
vt 0.580400 0.571400
vt 0.580400 0.506800
vt 0.457500 0.506800
vt 0.457500 0.476400
vt 0.580400 0.434200
vt 0.580400 0.378400
vt 0.457500 0.444800
vt 0.721700 0.595200
vt 0.721700 0.506800
vt 0.580400 0.637600
vt 0.721700 0.691200
vt 0.721700 0.404900
vt 0.457500 0.574300
vt 0.721700 0.324300
vt 0.457500 0.538100
vt 0.457500 0.506800
vt 0.580400 0.506800
vt 0.580400 0.571400
vt 0.457500 0.476400
vt 0.580400 0.434200
vt 0.721700 0.506800
vt 0.721700 0.595200
vt 0.721700 0.404900
vn -0.7457 0.0117 0.6662
vn -0.6180 0.0436 0.7849
vn -0.9991 0.0375 0.0190
vn -0.9988 -0.0390 0.0304
vn -0.7904 -0.0124 -0.6125
vn -0.6049 0.0403 -0.7953
vn 0.0000 0.0725 -0.9974
vn -0.0000 0.0854 -0.9963
vn -0.6779 0.0711 0.7317
vn -0.9932 0.1157 0.0103
vn -0.0000 0.0723 0.9974
vn 0.0000 0.0458 0.9989
vn -0.6776 0.0895 -0.7300
vn 0.0000 0.0988 0.9951
vn -0.0000 0.0604 -0.9982
vn 0.7457 0.0117 0.6662
vn 0.9988 -0.0390 0.0304
vn 0.9991 0.0375 0.0190
vn 0.6179 0.0454 0.7849
vn 0.7904 -0.0124 -0.6125
vn 0.6049 0.0410 -0.7953
vn 0.9932 0.1157 0.0103
vn 0.6779 0.0711 0.7317
vn 0.6776 0.0895 -0.7300
usemtl Wolf
s 1
f 1/1/1 2/2/2 3/3/3 4/4/4
f 5/5/5 6/6/6 7/7/7 8/8/8
f 4/4/4 3/3/3 6/6/6 5/5/5
f 3/3/3 2/2/2 9/9/9 10/10/10
f 2/2/2 11/11/11 12/12/12 9/9/9
f 6/6/6 3/3/3 10/10/10 13/13/13
f 14/14/14 11/11/11 2/2/2 1/1/1
f 15/15/15 7/7/7 6/6/6 13/13/13
f 16/16/16 17/17/17 18/18/18 19/19/19
f 20/20/20 8/8/8 7/7/7 21/21/21
f 17/17/17 20/20/20 21/21/21 18/18/18
f 18/18/18 22/22/22 23/23/23 19/19/19
f 19/19/19 23/23/23 12/12/12 11/11/11
f 21/21/21 24/24/24 22/22/22 18/18/18
f 14/14/14 16/16/16 19/19/19 11/11/11
f 15/15/15 24/24/24 21/21/21 7/7/7
