# Blender v2.92.0 OBJ File: 'loup.blend'
# www.blender.org
mtllib queue_3.mtl
o queue3_Wolf.005
v -1.854300 -12.164032 2.828655
v -3.569900 -2.452309 5.053406
v -6.162800 -2.452309 0.533108
v -3.149100 -12.164032 0.638454
v -1.995900 -12.164032 -1.609745
v -3.795300 -2.452309 -4.171291
v 0.000000 -2.452309 -6.588093
v 0.000000 -12.164032 -2.843845
v 0.000000 13.757992 4.853611
v -2.801200 13.757992 3.397511
v 0.000000 -2.452309 6.994507
v -4.880200 13.757992 0.107212
v -2.957000 13.757992 -3.235790
v 0.000000 13.757992 -5.047287
v 0.000000 -12.164032 3.818253
v 1.854300 -12.164032 2.828655
v 3.149100 -12.164032 0.638454
v 6.162800 -2.452309 0.533108
v 3.569900 -2.452309 5.053406
v 1.995900 -12.164032 -1.609745
v 3.795300 -2.452309 -4.171291
v 2.801200 13.757992 3.397511
v 4.880200 13.757992 0.107212
v 2.957000 13.757992 -3.235790
vt 0.457500 0.538100
vt 0.580400 0.571400
vt 0.580400 0.506800
vt 0.457500 0.506800
vt 0.457500 0.476400
vt 0.580400 0.434200
vt 0.580400 0.378400
vt 0.457500 0.444800
vt 0.721700 0.691200
vt 0.721700 0.595200
vt 0.580400 0.637600
vt 0.721700 0.506800
vt 0.721700 0.404900
vt 0.721700 0.324300
vt 0.457500 0.574300
vt 0.457500 0.538100
vt 0.457500 0.506800
vt 0.580400 0.506800
vt 0.580400 0.571400
vt 0.457500 0.476400
vt 0.580400 0.434200
vt 0.721700 0.595200
vt 0.721700 0.506800
vt 0.721700 0.404900
vn -0.6684 -0.2761 0.6907
vn -0.6924 -0.0842 0.7166
vn -0.9941 -0.1050 0.0284
vn -0.9544 -0.2966 0.0352
vn -0.7086 -0.3000 -0.6387
vn -0.7334 -0.1104 -0.6707
vn 0.0000 -0.1263 -0.9920
vn 0.0000 -0.3590 -0.9333
vn -0.0000 0.1309 0.9914
vn -0.6771 0.1065 0.7281
vn 0.0000 -0.0863 0.9963
vn -0.9968 0.0792 0.0123
vn -0.7153 0.0771 -0.6946
vn -0.0000 0.0946 -0.9955
vn 0.0000 -0.3105 0.9506
vn 0.6684 -0.2761 0.6907
vn 0.9544 -0.2966 0.0352
vn 0.9941 -0.1050 0.0283
vn 0.6924 -0.0839 0.7166
vn 0.7086 -0.3000 -0.6387
vn 0.7334 -0.1103 -0.6707
vn 0.6771 0.1065 0.7281
vn 0.9968 0.0792 0.0123
vn 0.7153 0.0771 -0.6946
usemtl Wolf
s 1
f 1/1/1 2/2/2 3/3/3 4/4/4
f 5/5/5 6/6/6 7/7/7 8/8/8
f 4/4/4 3/3/3 6/6/6 5/5/5
f 9/9/9 10/10/10 2/2/2 11/11/11
f 2/2/2 10/10/10 12/12/12 3/3/3
f 6/6/6 13/13/13 14/14/14 7/7/7
f 3/3/3 12/12/12 13/13/13 6/6/6
f 2/2/2 1/1/1 15/15/15 11/11/11
f 16/16/16 17/17/17 18/18/18 19/19/19
f 20/20/20 8/8/8 7/7/7 21/21/21
f 17/17/17 20/20/20 21/21/21 18/18/18
f 9/9/9 11/11/11 19/19/19 22/22/22
f 19/19/19 18/18/18 23/23/23 22/22/22
f 21/21/21 7/7/7 14/14/14 24/24/24
f 18/18/18 21/21/21 24/24/24 23/23/23
f 19/19/19 11/11/11 15/15/15 16/16/16
