# Blender v2.92.0 OBJ File: 'loup.blend'
# www.blender.org
mtllib queue_5.mtl
o queue5_Wolf.007
v -2.099660 -2.966709 0.243412
v -1.539262 -2.997932 1.825874
v -1.047100 11.572296 1.522213
v -1.691200 11.572296 0.425312
v 0.000000 -2.966709 2.411415
v 0.000000 11.572296 2.050011
v -1.648900 -2.966709 -1.765789
v -1.026900 11.572296 -0.801189
v 0.000000 -2.966709 -2.254189
v 0.000000 11.572296 -1.442688
v 0.000000 13.646690 0.403412
v 2.037454 -2.966709 0.243412
v 1.691200 11.572296 0.425312
v 1.047100 11.572296 1.522213
v 1.508866 -2.974743 1.870098
v 1.648900 -2.966709 -1.765789
v 1.026900 11.572296 -0.801189
vt 0.671600 0.758000
vt 0.673200 0.784100
vt 0.845100 0.775100
vt 0.842800 0.760700
vt 0.675800 0.808500
vt 0.849200 0.788100
vt 0.673300 0.729300
vt 0.845100 0.744600
vt 0.676100 0.704100
vt 0.849000 0.730800
vt 0.872600 0.760200
vt 0.671600 0.758000
vt 0.842800 0.760700
vt 0.845100 0.775100
vt 0.673200 0.784100
vt 0.673300 0.729300
vt 0.845100 0.744600
vn -0.9982 0.0405 0.0444
vn -0.7050 0.0310 0.7086
vn -0.6555 0.3159 0.6859
vn -0.9481 0.3160 0.0346
vn -0.0071 0.0310 0.9995
vn -0.0030 0.3130 0.9497
vn -0.7286 0.0608 -0.6822
vn -0.6834 0.3409 -0.6456
vn -0.0000 0.0706 -0.9975
vn 0.0000 0.3416 -0.9399
vn 0.0000 0.9999 0.0173
vn 0.9983 0.0378 0.0434
vn 0.9489 0.3137 0.0349
vn 0.6568 0.3165 0.6845
vn 0.7064 0.0305 0.7072
vn 0.7343 0.0597 -0.6762
vn 0.6865 0.3409 -0.6422
usemtl Wolf
s 1
f 1/1/1 2/2/2 3/3/3 4/4/4
f 2/2/2 5/5/5 6/6/6 3/3/3
f 7/7/7 1/1/1 4/4/4 8/8/8
f 9/9/9 7/7/7 8/8/8 10/10/10
f 3/3/3 11/11/11 4/4/4
f 6/6/6 11/11/11 3/3/3
f 4/4/4 11/11/11 8/8/8
f 8/8/8 11/11/11 10/10/10
f 12/12/12 13/13/13 14/14/14 15/15/15
f 15/15/15 14/14/14 6/6/6 5/5/5
f 16/16/16 17/17/17 13/13/13 12/12/12
f 9/9/9 10/10/10 17/17/17 16/16/16
f 14/14/14 13/13/13 11/11/11
f 6/6/6 14/14/14 11/11/11
f 13/13/13 17/17/17 11/11/11
f 17/17/17 10/10/10 11/11/11
