# Blender v2.92.0 OBJ File: 'loup.blend'
# www.blender.org
mtllib queue_2.mtl
o queue2_Wolf.004
v -1.904400 -12.254654 0.335930
v -1.591400 -12.254654 1.589828
v -4.997500 0.020893 5.263809
v -7.722300 0.020893 0.394108
v 0.000000 -12.254654 2.193127
v 0.000000 0.020893 7.696907
v 0.000000 -12.254652 -1.799370
v -1.411900 -12.254652 -1.032173
v -5.195900 0.020893 -4.790791
v 0.000000 0.020897 -7.835793
v -3.883000 15.424294 5.281109
v -6.465000 15.424294 0.352608
v 0.000000 15.424294 7.652309
v -4.240500 15.424294 -4.620991
v 0.000000 15.424297 -7.576893
v 1.904400 -12.254654 0.335930
v 7.722300 0.020893 0.394108
v 4.997500 0.020893 5.263809
v 1.591400 -12.254654 1.589828
v 5.195900 0.020893 -4.790791
v 1.411900 -12.254652 -1.032173
v 6.465000 15.424294 0.352608
v 3.883000 15.424294 5.281109
v 4.240500 15.424294 -4.620991
vt 0.457500 0.506800
vt 0.457500 0.538100
vt 0.580400 0.571400
vt 0.580400 0.506800
vt 0.457500 0.574300
vt 0.580400 0.637600
vt 0.457500 0.444800
vt 0.457500 0.476400
vt 0.580400 0.434200
vt 0.580400 0.378400
vt 0.721700 0.595200
vt 0.721700 0.506800
vt 0.721700 0.691200
vt 0.721700 0.404900
vt 0.721700 0.324300
vt 0.457500 0.506800
vt 0.580400 0.506800
vt 0.580400 0.571400
vt 0.457500 0.538100
vt 0.580400 0.434200
vt 0.457500 0.476400
vt 0.721700 0.506800
vt 0.721700 0.595200
vt 0.721700 0.404900
vn -0.9000 -0.4317 -0.0610
vn -0.6943 -0.3849 0.6081
vn -0.6808 -0.1614 0.7144
vn -0.9857 -0.1664 0.0268
vn -0.0000 -0.4083 0.9129
vn 0.0003 -0.1975 0.9803
vn -0.0000 -0.4408 -0.8976
vn -0.7025 -0.3970 -0.5906
vn -0.7244 -0.1711 -0.6678
vn 0.0000 -0.2036 -0.9791
vn -0.7230 0.0515 0.6889
vn -0.9962 0.0814 0.0308
vn -0.0000 0.0029 1.0000
vn -0.7658 0.0546 -0.6407
vn -0.0000 0.0168 -0.9999
vn 0.9000 -0.4317 -0.0610
vn 0.9857 -0.1661 0.0270
vn 0.6803 -0.1629 0.7146
vn 0.6943 -0.3849 0.6081
vn 0.7247 -0.1702 -0.6678
vn 0.7025 -0.3970 -0.5906
vn 0.9962 0.0814 0.0308
vn 0.7230 0.0515 0.6889
vn 0.7658 0.0546 -0.6407
usemtl Wolf
s 1
f 1/1/1 2/2/2 3/3/3 4/4/4
f 2/2/2 5/5/5 6/6/6 3/3/3
f 7/7/7 8/8/8 9/9/9 10/10/10
f 8/8/8 1/1/1 4/4/4 9/9/9
f 3/3/3 11/11/11 12/12/12 4/4/4
f 6/6/6 13/13/13 11/11/11 3/3/3
f 9/9/9 14/14/14 15/15/15 10/10/10
f 4/4/4 12/12/12 14/14/14 9/9/9
f 16/16/16 17/17/17 18/18/18 19/19/19
f 19/19/19 18/18/18 6/6/6 5/5/5
f 7/7/7 10/10/10 20/20/20 21/21/21
f 21/21/21 20/20/20 17/17/17 16/16/16
f 18/18/18 17/17/17 22/22/22 23/23/23
f 6/6/6 18/18/18 23/23/23 13/13/13
f 20/20/20 10/10/10 15/15/15 24/24/24
f 17/17/17 20/20/20 24/24/24 22/22/22
