# Blender v2.92.0 OBJ File: 'loup.blend'
# www.blender.org
mtllib queue_1.mtl
o queue1_Wolf.008
v -3.049100 0.075592 1.493103
v -2.357000 0.075592 -0.697998
v -2.426700 0.075592 3.580402
v 0.000000 0.075592 4.598705
v 0.000000 0.075594 -1.926697
v -4.477600 7.969692 5.244705
v -6.551200 7.969692 0.910904
v 0.000000 7.969692 7.117702
v -3.995200 7.969694 -4.133297
v -6.312400 16.953091 6.488609
v -9.311400 16.953091 1.006809
v -5.539500 16.953091 -5.611893
v 0.000000 16.953094 -8.965591
v 0.000000 7.969694 -6.451694
v 0.000000 16.953091 9.125908
v 2.357000 0.075592 -0.697998
v 3.049100 0.075592 1.493103
v 2.426700 0.075592 3.580402
v 6.551200 7.969692 0.910904
v 4.477600 7.969692 5.244705
v 3.995200 7.969694 -4.133297
v 9.311400 16.953091 1.006809
v 6.312400 16.953091 6.488609
v 5.539500 16.953091 -5.611893
v -3.049100 -1.786901 1.493103
v -2.357000 -1.424408 -0.697998
v -2.426700 -1.424408 3.580402
v 0.000000 -1.770550 4.598705
v 0.000000 -1.841963 -1.926697
v 2.357000 -1.424408 -0.697998
v 3.049100 -1.624975 1.493103
v 2.426700 -1.424408 3.580402
vt 0.000000 0.000000
vt 0.000000 0.000000
vt 0.000000 0.000000
vt 0.000000 0.000000
vt 0.000000 0.000000
vt 0.000000 0.000000
vt 0.000000 0.000000
vt 0.000000 0.000000
vt 0.457500 0.506800
vt 0.457500 0.538100
vt 0.580400 0.571400
vt 0.580400 0.506800
vt 0.457500 0.574300
vt 0.580400 0.637600
vt 0.457500 0.476400
vt 0.580400 0.434200
vt 0.721700 0.595200
vt 0.721700 0.506800
vt 0.721700 0.404900
vt 0.721700 0.324300
vt 0.580400 0.378400
vt 0.457500 0.444800
vt 0.721700 0.691200
vt 0.457500 0.506800
vt 0.580400 0.506800
vt 0.580400 0.571400
vt 0.457500 0.538100
vt 0.457500 0.476400
vt 0.580400 0.434200
vt 0.721700 0.506800
vt 0.721700 0.595200
vt 0.721700 0.404900
vt 0.457500 0.538100
vt 0.457500 0.506800
vt 0.457500 0.476400
vt 0.457500 0.444800
vt 0.457500 0.476400
vt 0.457500 0.538100
vt 0.457500 0.574300
vt 0.457500 0.506800
vn 0.0000 -0.9958 -0.0912
vn -0.2326 -0.9442 0.2333
vn 0.0265 -0.9994 -0.0208
vn 0.0262 -0.9876 -0.1551
vn 0.0000 -0.9468 0.3218
vn 0.2023 -0.9673 0.1533
vn -0.9667 -0.1668 0.1941
vn -0.7610 -0.0016 0.6488
vn -0.6612 -0.2722 0.6991
vn -0.9383 -0.3454 -0.0192
vn -0.0399 -0.1588 0.9865
vn 0.0000 -0.2588 0.9659
vn -0.6472 -0.4055 -0.6456
vn -0.6814 -0.3188 -0.6588
vn -0.6587 -0.2336 0.7152
vn -0.9559 -0.2937 -0.0050
vn -0.6971 -0.2315 -0.6785
vn -0.0000 -0.2695 -0.9630
vn -0.0000 -0.3729 -0.9279
vn -0.0702 -0.2813 -0.9571
vn 0.0000 -0.2183 0.9759
vn 0.9573 -0.2134 0.1948
vn 0.9383 -0.3454 -0.0192
vn 0.6612 -0.2722 0.6991
vn 0.7759 -0.0109 0.6307
vn 0.5950 -0.2904 -0.7494
vn 0.6814 -0.3188 -0.6588
vn 0.9559 -0.2937 -0.0050
vn 0.6587 -0.2336 0.7152
vn 0.6971 -0.2315 -0.6785
vn 0.8401 0.1044 0.5322
vn 0.9754 0.1701 -0.1401
vn 0.8373 0.1650 -0.5213
vn -0.0788 0.0140 -0.9968
vn -0.6550 0.1679 -0.7368
vn -0.5993 0.0030 0.8005
vn 0.0288 0.0324 0.9991
vn -0.9785 0.0552 0.1989
usemtl Wolf
s off
f 26/1/1 30/2/1 31/3/1
f 28/4/2 27/5/2 25/6/2
f 31/3/3 28/4/3 25/6/3
f 25/6/4 26/1/4 31/3/4
f 29/7/5 30/2/5 26/1/5
f 31/3/6 32/8/6 28/4/6
s 1
f 1/9/7 3/10/8 6/11/9 7/12/10
f 3/10/8 4/13/11 8/14/12 6/11/9
f 2/15/13 1/9/7 7/12/10 9/16/14
f 6/11/9 10/17/15 11/18/16 7/12/10
f 9/16/14 12/19/17 13/20/18 14/21/19
f 7/12/10 11/18/16 12/19/17 9/16/14
f 5/22/20 2/15/13 9/16/14 14/21/19
f 15/23/21 10/17/15 6/11/9 8/14/12
f 17/24/22 19/25/23 20/26/24 18/27/25
f 18/27/25 20/26/24 8/14/12 4/13/11
f 16/28/26 21/29/27 19/25/23 17/24/22
f 20/26/24 19/25/23 22/30/28 23/31/29
f 21/29/27 14/21/19 13/20/18 24/32/30
f 19/25/23 21/29/27 24/32/30 22/30/28
f 5/22/20 14/21/19 21/29/27 16/28/26
f 15/23/21 8/14/12 20/26/24 23/31/29
f 17/24/22 18/27/25 32/33/31 31/34/32
f 16/28/26 17/24/22 31/34/32 30/35/33
f 2/15/13 5/22/20 29/36/34 26/37/35
f 4/13/11 3/10/8 27/38/36 28/39/37
f 3/10/8 1/9/7 25/40/38 27/38/36
f 5/22/20 16/28/26 30/35/33 29/36/34
f 18/27/25 4/13/11 28/39/37 32/33/31
f 1/9/7 2/15/13 26/37/35 25/40/38
