# Blender v2.92.0 OBJ File: ''
# www.blender.org
mtllib trank.mtl
o Trank.001_tree.002
v 0.066408 0.000000 0.000000
v 0.053725 -0.000000 -0.039034
v 0.020521 -0.000000 -0.063158
v -0.020521 -0.000000 -0.063158
v -0.053725 -0.000000 -0.039034
v -0.066408 0.000000 0.000000
v -0.053725 0.000000 0.039034
v -0.020521 0.000000 0.063158
v 0.020521 0.000000 0.063158
v 0.053725 0.000000 0.039034
v 0.066287 0.439625 0.000122
v 0.053556 0.441483 -0.038863
v 0.020368 0.440853 -0.063004
v -0.020600 0.437978 -0.063079
v -0.053699 0.433954 -0.039061
v -0.066287 0.430319 -0.000122
v -0.053556 0.428461 0.038863
v -0.020368 0.429090 0.063004
v 0.020600 0.431966 0.063079
v 0.053699 0.435990 0.039060
v 0.066408 0.217486 -0.000000
v 0.053725 0.217486 -0.039034
v 0.020521 0.217486 -0.063158
v -0.020521 0.217486 -0.063158
v -0.053725 0.217486 -0.039034
v -0.066408 0.217486 -0.000000
v -0.053725 0.217486 0.039034
v -0.020521 0.217486 0.063158
v 0.020521 0.217486 0.063158
v 0.053725 0.217486 0.039034
v 0.037025 0.865794 0.022769
v 0.025595 0.865268 -0.012333
v -0.004270 0.865919 -0.034030
v -0.041164 0.867496 -0.034033
v -0.070994 0.869397 -0.012342
v -0.082366 0.870897 0.022758
v -0.070936 0.871423 0.057860
v -0.041070 0.870772 0.079556
v -0.004177 0.869195 0.079560
v 0.025653 0.867294 0.057869
v 0.051621 0.656078 0.011497
v 0.039530 0.657842 -0.025529
v 0.008009 0.657245 -0.048457
v -0.030900 0.654513 -0.048529
v -0.062336 0.650692 -0.025717
v -0.074292 0.647239 0.011266
v -0.062200 0.645475 0.048292
v -0.030680 0.646073 0.071220
v 0.008230 0.648804 0.071292
v 0.039666 0.652626 0.048480
v 0.043712 1.306998 0.013435
v 0.033638 1.306884 -0.017528
v 0.007334 1.305244 -0.036667
v -0.025153 1.302704 -0.036671
v -0.051414 1.300234 -0.017540
v -0.061418 1.298777 0.013420
v -0.051344 1.298890 0.044383
v -0.025040 1.300530 0.063522
v 0.007447 1.303070 0.063527
v 0.033708 1.305541 0.044395
v 0.040410 1.083216 0.018121
v 0.029667 1.082721 -0.014913
v 0.001572 1.083332 -0.035339
v -0.033144 1.084816 -0.035355
v -0.061221 1.086605 -0.014955
v -0.071934 1.088017 0.018070
v -0.061191 1.088512 0.051104
v -0.033095 1.087901 0.071530
v 0.001621 1.086417 0.071546
v 0.029697 1.084628 0.051146
v 0.010924 1.740794 0.020486
v 0.002396 1.739218 -0.006046
v -0.020068 1.736718 -0.022454
v -0.047889 1.734248 -0.022471
v -0.070439 1.732752 -0.006090
v -0.079105 1.732800 0.020432
v -0.070578 1.734376 0.046964
v -0.048113 1.736876 0.063372
v -0.020293 1.739346 0.063389
v 0.002257 1.740843 0.047008
v 0.027333 1.523658 0.016974
v 0.017994 1.523554 -0.011778
v -0.006420 1.522032 -0.029560
v -0.036583 1.519674 -0.029579
v -0.060974 1.517380 -0.011828
v -0.070276 1.516026 0.016912
v -0.060937 1.516130 0.045665
v -0.036524 1.517652 0.063447
v -0.006361 1.520010 0.063466
v 0.018030 1.522304 0.045715
v -0.025901 2.173950 0.010476
v -0.033042 2.174489 -0.011207
v -0.051517 2.173447 -0.024595
v -0.074270 2.171220 -0.024574
v -0.092609 2.168660 -0.011152
v -0.099531 2.166744 0.010545
v -0.092390 2.166205 0.032228
v -0.073915 2.167248 0.045617
v -0.051162 2.169474 0.045595
v -0.032823 2.172035 0.032173
v -0.007477 1.957204 0.015443
v -0.015269 1.955768 -0.008667
v -0.035717 1.953494 -0.023552
v -0.061011 1.951250 -0.023526
v -0.081489 1.949892 -0.008599
v -0.089330 1.949941 0.015526
v -0.081538 1.951376 0.039636
v -0.061090 1.953650 0.054521
v -0.035796 1.955895 0.054495
v -0.015318 1.957252 0.039569
v -0.066508 2.605116 0.028913
v -0.071837 2.605755 0.012620
v -0.085712 2.605442 0.002544
v -0.102834 2.604294 0.002531
v -0.116662 2.602751 0.012588
v -0.121915 2.601402 0.028872
v -0.116587 2.600762 0.045165
v -0.102711 2.601076 0.055241
v -0.085590 2.602224 0.055254
v -0.071761 2.603767 0.045197
v -0.046230 2.389952 0.019768
v -0.052425 2.390431 0.000765
v -0.068566 2.389524 -0.011006
v -0.088488 2.387578 -0.011047
v -0.104581 2.385336 0.000657
v -0.110697 2.383654 0.019635
v -0.104502 2.383175 0.038638
v -0.088361 2.384082 0.050409
v -0.068440 2.386028 0.050450
v -0.052347 2.388270 0.038746
v -0.096894 2.991985 0.046546
v -0.100109 2.992935 0.036756
v -0.108483 2.993618 0.030726
v -0.118819 2.993774 0.030758
v -0.127169 2.993343 0.036841
v -0.130342 2.992490 0.046651
v -0.127127 2.991540 0.056442
v -0.118752 2.990857 0.062472
v -0.108416 2.990701 0.062439
v -0.100067 2.991132 0.056356
v -0.081714 2.799235 0.037779
v -0.085974 2.799749 0.024720
v -0.097086 2.799498 0.016636
v -0.110807 2.798579 0.016615
v -0.121895 2.797343 0.024665
v -0.126115 2.796261 0.037712
v -0.121856 2.795748 0.050771
v -0.110743 2.795998 0.058855
v -0.097022 2.796917 0.058876
v -0.085934 2.798154 0.050826
vt 0.097709 0.925277
vt 0.097709 0.997437
vt 0.084118 0.997437
vt 0.084118 0.925277
vt 0.070527 0.997437
vt 0.070527 0.925277
vt 0.056931 0.997437
vt 0.056931 0.925277
vt 0.043333 0.997437
vt 0.043333 0.925277
vt 0.029739 0.997437
vt 0.029739 0.925277
vt 0.016148 0.997437
vt 0.016148 0.925277
vt 0.002557 0.997437
vt 0.002557 0.925277
vt 0.138496 0.925277
vt 0.138496 0.997437
vt 0.124900 0.997437
vt 0.124900 0.925277
vt 0.111303 0.997437
vt 0.111303 0.925277
vt 0.097709 0.853118
vt 0.084118 0.853118
vt 0.070527 0.853118
vt 0.056931 0.853118
vt 0.043333 0.853118
vt 0.029739 0.853118
vt 0.016148 0.853118
vt 0.002557 0.853118
vt 0.138496 0.853118
vt 0.124900 0.853118
vt 0.111303 0.853118
vt 0.097709 0.781018
vt 0.084118 0.781018
vt 0.070527 0.781018
vt 0.056931 0.781018
vt 0.043333 0.781018
vt 0.029739 0.781018
vt 0.016148 0.781018
vt 0.002557 0.781018
vt 0.138496 0.781018
vt 0.124900 0.781018
vt 0.111303 0.781018
vt 0.097709 0.708916
vt 0.084118 0.708916
vt 0.070527 0.708916
vt 0.056931 0.708916
vt 0.043333 0.708916
vt 0.029739 0.708916
vt 0.016148 0.708916
vt 0.002557 0.708916
vt 0.138496 0.708916
vt 0.124900 0.708916
vt 0.111303 0.708916
vt 0.097709 0.636766
vt 0.084118 0.636766
vt 0.070527 0.636766
vt 0.056931 0.636766
vt 0.043333 0.636766
vt 0.029739 0.636766
vt 0.016148 0.636766
vt 0.002557 0.636766
vt 0.138496 0.636766
vt 0.124900 0.636766
vt 0.111303 0.636766
vt 0.097709 0.564614
vt 0.084118 0.564614
vt 0.070527 0.564614
vt 0.056931 0.564614
vt 0.043333 0.564614
vt 0.029739 0.564614
vt 0.016148 0.564614
vt 0.002557 0.564614
vt 0.138496 0.564614
vt 0.124900 0.564614
vt 0.111303 0.564614
vt 0.097709 0.492489
vt 0.084118 0.492489
vt 0.070527 0.492489
vt 0.056931 0.492489
vt 0.043333 0.492489
vt 0.029739 0.492489
vt 0.016148 0.492489
vt 0.002557 0.492489
vt 0.138496 0.492489
vt 0.124900 0.492489
vt 0.111303 0.492489
vt 0.097709 0.420363
vt 0.084118 0.420363
vt 0.070527 0.420363
vt 0.056931 0.420363
vt 0.043333 0.420363
vt 0.029739 0.420363
vt 0.016148 0.420363
vt 0.002557 0.420363
vt 0.138496 0.420363
vt 0.124900 0.420363
vt 0.111303 0.420363
vt 0.097709 0.348251
vt 0.084118 0.348251
vt 0.070527 0.348251
vt 0.056931 0.348251
vt 0.043333 0.348251
vt 0.029739 0.348251
vt 0.016148 0.348251
vt 0.002557 0.348251
vt 0.138496 0.348251
vt 0.124900 0.348251
vt 0.111303 0.348251
vt 0.097709 0.276139
vt 0.084118 0.276139
vt 0.070527 0.276139
vt 0.056931 0.276139
vt 0.043333 0.276139
vt 0.029739 0.276139
vt 0.016148 0.276139
vt 0.002557 0.276139
vt 0.138496 0.276139
vt 0.124900 0.276139
vt 0.111303 0.276139
vt 0.097709 0.204051
vt 0.084118 0.204051
vt 0.070527 0.204051
vt 0.056931 0.204051
vt 0.043333 0.204051
vt 0.029739 0.204051
vt 0.016148 0.204051
vt 0.002557 0.204051
vt 0.138496 0.204051
vt 0.124900 0.204051
vt 0.111303 0.204051
vt 0.097709 0.131963
vt 0.084118 0.131963
vt 0.070527 0.131963
vt 0.056931 0.131963
vt 0.043333 0.131963
vt 0.029739 0.131963
vt 0.016148 0.131963
vt 0.002557 0.131963
vt 0.138496 0.131963
vt 0.124900 0.131963
vt 0.111303 0.131963
vt 0.097709 0.067260
vt 0.084118 0.067260
vt 0.070527 0.067260
vt 0.056931 0.067260
vt 0.043333 0.067260
vt 0.029739 0.067260
vt 0.016148 0.067260
vt 0.002557 0.067260
vt 0.138496 0.067260
vt 0.124900 0.067260
vt 0.111303 0.067260
vt 0.097709 0.002558
vt 0.084118 0.002558
vt 0.070527 0.002558
vt 0.056931 0.002558
vt 0.043333 0.002558
vt 0.029739 0.002558
vt 0.016148 0.002558
vt 0.002557 0.002558
vt 0.138496 0.002558
vt 0.124900 0.002558
vt 0.111303 0.002558
vt 0.150420 0.002557
vt 0.153259 0.004617
vt 0.154346 0.007950
vt 0.153265 0.011282
vt 0.150430 0.013342
vt 0.146924 0.013342
vt 0.144085 0.011282
vt 0.142999 0.007950
vt 0.144079 0.004617
vt 0.146914 0.002557
vn 1.0000 0.0003 -0.0004
vn 1.0000 -0.0000 0.0000
vn 0.8090 -0.0000 -0.5878
vn 0.8089 0.0005 -0.5879
vn 0.3090 -0.0000 -0.9511
vn 0.3093 0.0004 -0.9510
vn -0.3090 -0.0000 -0.9511
vn -0.3087 0.0001 -0.9512
vn -0.8090 -0.0000 -0.5878
vn -0.8091 0.0001 -0.5877
vn -1.0000 0.0000 0.0000
vn -1.0000 0.0003 0.0004
vn -0.8090 0.0000 0.5878
vn -0.8089 0.0005 0.5879
vn -0.3090 0.0000 0.9511
vn -0.3094 0.0004 0.9509
vn 0.3090 0.0000 0.9511
vn 0.3087 0.0002 0.9512
vn 0.8090 0.0000 0.5878
vn 0.8091 0.0001 0.5877
vn 0.9994 0.0342 -0.0041
vn 0.8077 0.0451 -0.5879
vn 0.3111 0.0414 -0.9495
vn -0.3038 0.0246 -0.9524
vn -0.8051 0.0018 -0.5932
vn -0.9998 -0.0180 -0.0052
vn -0.8094 -0.0279 0.5866
vn -0.3057 -0.0246 0.9518
vn 0.3150 -0.0091 0.9491
vn 0.8126 0.0132 0.5826
vn 0.9977 0.0684 0.0016
vn 0.8061 0.0897 -0.5850
vn 0.3070 0.0824 -0.9481
vn -0.3102 0.0494 -0.9494
vn -0.8095 0.0040 -0.5871
vn -0.9993 -0.0365 -0.0001
vn -0.8078 -0.0570 0.5867
vn -0.3085 -0.0501 0.9499
vn 0.3088 -0.0183 0.9509
vn 0.8081 0.0270 0.5885
vn 0.9996 0.0270 0.0075
vn 0.8092 0.0355 -0.5865
vn 0.3033 0.0352 -0.9522
vn -0.3187 0.0271 -0.9475
vn -0.8151 0.0158 -0.5791
vn -1.0000 0.0058 0.0070
vn -0.8084 -0.0003 0.5887
vn -0.3138 -0.0014 0.9495
vn 0.2999 0.0036 0.9540
vn 0.8027 0.0143 0.5963
vn 0.9999 -0.0152 -0.0004
vn 0.8089 -0.0217 -0.5876
vn 0.3093 -0.0139 -0.9509
vn -0.3089 0.0057 -0.9511
vn -0.8087 0.0297 -0.5875
vn -0.9988 0.0488 -0.0001
vn -0.8079 0.0554 0.5867
vn -0.3087 0.0470 0.9500
vn 0.3094 0.0269 0.9505
vn 0.8095 0.0032 0.5872
vn 0.9995 0.0306 -0.0036
vn 0.8097 0.0267 -0.5863
vn 0.3149 0.0183 -0.9489
vn -0.3007 0.0097 -0.9537
vn -0.8045 0.0048 -0.5940
vn -1.0000 0.0051 -0.0035
vn -0.8077 0.0094 0.5895
vn -0.3024 0.0158 0.9530
vn 0.3174 0.0229 0.9480
vn 0.8131 0.0288 0.5814
vn 0.9972 0.0754 0.0007
vn 0.8059 0.0738 -0.5875
vn 0.3062 0.0507 -0.9506
vn -0.3103 0.0149 -0.9505
vn -0.8087 -0.0200 -0.5878
vn -0.9992 -0.0407 -0.0004
vn -0.8082 -0.0392 0.5876
vn -0.3089 -0.0160 0.9509
vn 0.3077 0.0199 0.9513
vn 0.8066 0.0547 0.5886
vn 0.9968 0.0800 0.0039
vn 0.8082 0.0663 -0.5851
vn 0.3091 0.0343 -0.9504
vn -0.3095 -0.0039 -0.9509
vn -0.8096 -0.0338 -0.5860
vn -0.9990 -0.0439 0.0032
vn -0.8068 -0.0302 0.5901
vn -0.3085 0.0021 0.9512
vn 0.3058 0.0404 0.9512
vn 0.8042 0.0701 0.5903
vn 0.9964 0.0847 -0.0009
vn 0.8061 0.0587 -0.5888
vn 0.3077 0.0175 -0.9513
vn -0.3084 -0.0232 -0.9510
vn -0.8077 -0.0479 -0.5877
vn -0.9989 -0.0470 0.0004
vn -0.8087 -0.0208 0.5878
vn -0.3109 0.0205 0.9502
vn 0.3050 0.0612 0.9504
vn 0.8047 0.0857 0.5875
vn 0.9960 0.0889 -0.0062
vn 0.8019 0.0815 -0.5918
vn 0.3039 0.0507 -0.9514
vn -0.3087 0.0080 -0.9511
vn -0.8059 -0.0304 -0.5913
vn -0.9988 -0.0494 -0.0054
vn -0.8103 -0.0414 0.5846
vn -0.3099 -0.0099 0.9507
vn 0.3097 0.0328 0.9503
vn 0.8089 0.0704 0.5836
vn 0.9956 0.0937 0.0024
vn 0.8038 0.1047 -0.5856
vn 0.3038 0.0837 -0.9491
vn -0.3125 0.0388 -0.9491
vn -0.8096 -0.0128 -0.5868
vn -0.9987 -0.0514 -0.0000
vn -0.8068 -0.0624 0.5875
vn -0.3073 -0.0415 0.9507
vn 0.3086 0.0033 0.9512
vn 0.8061 0.0549 0.5893
vn 0.9963 0.0859 0.0026
vn 0.8040 0.0999 -0.5862
vn 0.3027 0.0851 -0.9493
vn -0.3138 0.0473 -0.9483
vn -0.8104 0.0008 -0.5858
vn -0.9993 -0.0366 -0.0003
vn -0.8087 -0.0507 0.5861
vn -0.3103 -0.0361 0.9500
vn 0.3062 0.0017 0.9520
vn 0.8056 0.0483 0.5905
vn 0.9969 0.0781 0.0033
vn 0.8059 0.0953 -0.5843
vn 0.3057 0.0868 -0.9482
vn -0.3118 0.0560 -0.9485
vn -0.8102 0.0146 -0.5860
vn -0.9998 -0.0216 0.0004
vn -0.8082 -0.0387 0.5876
vn -0.3082 -0.0303 0.9508
vn 0.3087 0.0005 0.9512
vn 0.8068 0.0420 0.5893
vn 0.7450 0.6650 0.0520
vn 0.6073 0.6927 -0.3891
vn 0.2331 0.7055 -0.6692
vn -0.2389 0.6984 -0.6747
vn -0.6235 0.6732 -0.3976
vn -0.7670 0.6394 0.0534
vn -0.6149 0.6107 0.4990
vn -0.2319 0.5985 0.7668
vn 0.2311 0.6072 0.7602
vn 0.6014 0.6327 0.4880
usemtl Trank
s 1
f 21/1/1 1/2/2 2/3/3 22/4/4
f 22/4/4 2/3/3 3/5/5 23/6/6
f 23/6/6 3/5/5 4/7/7 24/8/8
f 24/8/8 4/7/7 5/9/9 25/10/10
f 25/10/10 5/9/9 6/11/11 26/12/12
f 26/12/12 6/11/11 7/13/13 27/14/14
f 27/14/14 7/13/13 8/15/15 28/16/16
f 28/17/16 8/18/15 9/19/17 29/20/18
f 29/20/18 9/19/17 10/21/19 30/22/20
f 30/22/20 10/21/19 1/2/2 21/1/1
f 11/23/21 21/1/1 22/4/4 12/24/22
f 12/24/22 22/4/4 23/6/6 13/25/23
f 13/25/23 23/6/6 24/8/8 14/26/24
f 14/26/24 24/8/8 25/10/10 15/27/25
f 15/27/25 25/10/10 26/12/12 16/28/26
f 16/28/26 26/12/12 27/14/14 17/29/27
f 17/29/27 27/14/14 28/16/16 18/30/28
f 18/31/28 28/17/16 29/20/18 19/32/29
f 19/32/29 29/20/18 30/22/20 20/33/30
f 20/33/30 30/22/20 21/1/1 11/23/21
f 41/34/31 11/23/21 12/24/22 42/35/32
f 42/35/32 12/24/22 13/25/23 43/36/33
f 43/36/33 13/25/23 14/26/24 44/37/34
f 44/37/34 14/26/24 15/27/25 45/38/35
f 45/38/35 15/27/25 16/28/26 46/39/36
f 46/39/36 16/28/26 17/29/27 47/40/37
f 47/40/37 17/29/27 18/30/28 48/41/38
f 48/42/38 18/31/28 19/32/29 49/43/39
f 49/43/39 19/32/29 20/33/30 50/44/40
f 50/44/40 20/33/30 11/23/21 41/34/31
f 31/45/41 41/34/31 42/35/32 32/46/42
f 32/46/42 42/35/32 43/36/33 33/47/43
f 33/47/43 43/36/33 44/37/34 34/48/44
f 34/48/44 44/37/34 45/38/35 35/49/45
f 35/49/45 45/38/35 46/39/36 36/50/46
f 36/50/46 46/39/36 47/40/37 37/51/47
f 37/51/47 47/40/37 48/41/38 38/52/48
f 38/53/48 48/42/38 49/43/39 39/54/49
f 39/54/49 49/43/39 50/44/40 40/55/50
f 40/55/50 50/44/40 41/34/31 31/45/41
f 61/56/51 31/45/41 32/46/42 62/57/52
f 62/57/52 32/46/42 33/47/43 63/58/53
f 63/58/53 33/47/43 34/48/44 64/59/54
f 64/59/54 34/48/44 35/49/45 65/60/55
f 65/60/55 35/49/45 36/50/46 66/61/56
f 66/61/56 36/50/46 37/51/47 67/62/57
f 67/62/57 37/51/47 38/52/48 68/63/58
f 68/64/58 38/53/48 39/54/49 69/65/59
f 69/65/59 39/54/49 40/55/50 70/66/60
f 70/66/60 40/55/50 31/45/41 61/56/51
f 51/67/61 61/56/51 62/57/52 52/68/62
f 52/68/62 62/57/52 63/58/53 53/69/63
f 53/69/63 63/58/53 64/59/54 54/70/64
f 54/70/64 64/59/54 65/60/55 55/71/65
f 55/71/65 65/60/55 66/61/56 56/72/66
f 56/72/66 66/61/56 67/62/57 57/73/67
f 57/73/67 67/62/57 68/63/58 58/74/68
f 58/75/68 68/64/58 69/65/59 59/76/69
f 59/76/69 69/65/59 70/66/60 60/77/70
f 60/77/70 70/66/60 61/56/51 51/67/61
f 81/78/71 51/67/61 52/68/62 82/79/72
f 82/79/72 52/68/62 53/69/63 83/80/73
f 83/80/73 53/69/63 54/70/64 84/81/74
f 84/81/74 54/70/64 55/71/65 85/82/75
f 85/82/75 55/71/65 56/72/66 86/83/76
f 86/83/76 56/72/66 57/73/67 87/84/77
f 87/84/77 57/73/67 58/74/68 88/85/78
f 88/86/78 58/75/68 59/76/69 89/87/79
f 89/87/79 59/76/69 60/77/70 90/88/80
f 90/88/80 60/77/70 51/67/61 81/78/71
f 71/89/81 81/78/71 82/79/72 72/90/82
f 72/90/82 82/79/72 83/80/73 73/91/83
f 73/91/83 83/80/73 84/81/74 74/92/84
f 74/92/84 84/81/74 85/82/75 75/93/85
f 75/93/85 85/82/75 86/83/76 76/94/86
f 76/94/86 86/83/76 87/84/77 77/95/87
f 77/95/87 87/84/77 88/85/78 78/96/88
f 78/97/88 88/86/78 89/87/79 79/98/89
f 79/98/89 89/87/79 90/88/80 80/99/90
f 80/99/90 90/88/80 81/78/71 71/89/81
f 101/100/91 71/89/81 72/90/82 102/101/92
f 102/101/92 72/90/82 73/91/83 103/102/93
f 103/102/93 73/91/83 74/92/84 104/103/94
f 104/103/94 74/92/84 75/93/85 105/104/95
f 105/104/95 75/93/85 76/94/86 106/105/96
f 106/105/96 76/94/86 77/95/87 107/106/97
f 107/106/97 77/95/87 78/96/88 108/107/98
f 108/108/98 78/97/88 79/98/89 109/109/99
f 109/109/99 79/98/89 80/99/90 110/110/100
f 110/110/100 80/99/90 71/89/81 101/100/91
f 91/111/101 101/100/91 102/101/92 92/112/102
f 92/112/102 102/101/92 103/102/93 93/113/103
f 93/113/103 103/102/93 104/103/94 94/114/104
f 94/114/104 104/103/94 105/104/95 95/115/105
f 95/115/105 105/104/95 106/105/96 96/116/106
f 96/116/106 106/105/96 107/106/97 97/117/107
f 97/117/107 107/106/97 108/107/98 98/118/108
f 98/119/108 108/108/98 109/109/99 99/120/109
f 99/120/109 109/109/99 110/110/100 100/121/110
f 100/121/110 110/110/100 101/100/91 91/111/101
f 121/122/111 91/111/101 92/112/102 122/123/112
f 122/123/112 92/112/102 93/113/103 123/124/113
f 123/124/113 93/113/103 94/114/104 124/125/114
f 124/125/114 94/114/104 95/115/105 125/126/115
f 125/126/115 95/115/105 96/116/106 126/127/116
f 126/127/116 96/116/106 97/117/107 127/128/117
f 127/128/117 97/117/107 98/118/108 128/129/118
f 128/130/118 98/119/108 99/120/109 129/131/119
f 129/131/119 99/120/109 100/121/110 130/132/120
f 130/132/120 100/121/110 91/111/101 121/122/111
f 111/133/121 121/122/111 122/123/112 112/134/122
f 112/134/122 122/123/112 123/124/113 113/135/123
f 113/135/123 123/124/113 124/125/114 114/136/124
f 114/136/124 124/125/114 125/126/115 115/137/125
f 115/137/125 125/126/115 126/127/116 116/138/126
f 116/138/126 126/127/116 127/128/117 117/139/127
f 117/139/127 127/128/117 128/129/118 118/140/128
f 118/141/128 128/130/118 129/131/119 119/142/129
f 119/142/129 129/131/119 130/132/120 120/143/130
f 120/143/130 130/132/120 121/122/111 111/133/121
f 141/144/131 111/133/121 112/134/122 142/145/132
f 142/145/132 112/134/122 113/135/123 143/146/133
f 143/146/133 113/135/123 114/136/124 144/147/134
f 144/147/134 114/136/124 115/137/125 145/148/135
f 145/148/135 115/137/125 116/138/126 146/149/136
f 146/149/136 116/138/126 117/139/127 147/150/137
f 147/150/137 117/139/127 118/140/128 148/151/138
f 148/152/138 118/141/128 119/142/129 149/153/139
f 149/153/139 119/142/129 120/143/130 150/154/140
f 150/154/140 120/143/130 111/133/121 141/144/131
f 131/155/141 141/144/131 142/145/132 132/156/142
f 132/156/142 142/145/132 143/146/133 133/157/143
f 133/157/143 143/146/133 144/147/134 134/158/144
f 134/158/144 144/147/134 145/148/135 135/159/145
f 135/159/145 145/148/135 146/149/136 136/160/146
f 136/160/146 146/149/136 147/150/137 137/161/147
f 137/161/147 147/150/137 148/151/138 138/162/148
f 138/163/148 148/152/138 149/153/139 139/164/149
f 139/164/149 149/153/139 150/154/140 140/165/150
f 140/165/150 150/154/140 141/144/131 131/155/141
f 131/166/141 132/167/142 133/168/143 134/169/144 135/170/145 136/171/146 137/172/147 138/173/148 139/174/149 140/175/150
